<?xml version="1.0" encoding="utf-8"?>
<!-- Generator: Adobe Illustrator 24.1.0, SVG Export Plug-In . SVG Version: 6.00 Build 0)  -->
<svg version="1.1" id="Layer_1" xmlns="http://www.w3.org/2000/svg" xmlns:xlink="http://www.w3.org/1999/xlink" x="0px" y="0px"
	 viewBox="0 0 105.9 46.7" style="enable-background:new 0 0 105.9 46.7;" xml:space="preserve">
<style type="text/css">
	.st0{fill:#11928D;stroke:#D6AF33;stroke-width:0.5;stroke-miterlimit:10;}
	.st1{fill:url(#SVGID_1_);}
	.st2{fill:url(#SVGID_2_);}
	.st3{fill:url(#SVGID_3_);}
</style>
<g>
	<path class="st0" d="M10.1,38.6c0-0.5-0.1-0.9-0.2-1.4c-0.1-0.4-0.3-0.9-0.6-1.3c-0.3-0.4-0.6-0.7-1-1c-0.1-0.1-0.2-0.1-0.3-0.2
		c0.3-0.2,0.5-0.4,0.7-0.7C9,33.8,9.2,33.4,9.3,33c0.1-0.5,0.2-0.9,0.2-1.4c0-0.6-0.1-1.2-0.4-1.8c-0.3-0.5-0.6-0.9-1.1-1.2
		c-0.5-0.3-1.1-0.5-1.6-0.6c-1-0.2-2-0.2-2.9-0.2h-1l-0.9,0L0.7,28H0.3v14.8h0.4c0.3,0,0.6,0.1,1,0.1s0.7,0.1,1,0.1h1.2h1
		c0.8,0,1.5-0.1,2.3-0.3c0.6-0.2,1.2-0.5,1.7-0.9c0.4-0.4,0.8-0.9,1-1.4C10,39.8,10.1,39.2,10.1,38.6z M5.9,32.7
		c0,0.2-0.1,0.3-0.1,0.5c0,0.1-0.1,0.1-0.1,0.2c0,0-0.1,0.1-0.1,0.1c-0.2,0.1-0.4,0.1-0.5,0.2c-0.3,0.1-0.5,0.1-0.8,0.1H3.8v-3.6
		c0.4,0,0.7,0,1.1,0.1c0.2,0,0.4,0.1,0.6,0.3c0.2,0.1,0.3,0.3,0.3,0.5c0.1,0.3,0.1,0.6,0.1,0.9C5.9,32.2,5.9,32.5,5.9,32.7z
		 M6.4,39.4c0,0.2-0.1,0.4-0.2,0.6c0,0.1-0.1,0.2-0.2,0.3C6,40.3,6,40.3,5.9,40.4c-0.1,0-0.2,0.1-0.2,0.1c-0.1,0-0.3,0.1-0.4,0.1
		l-0.5,0.1H4.3H3.8v-4.4h0.3c0.6,0,1.3,0.2,1.8,0.6c0.4,0.5,0.6,1.1,0.6,1.7C6.5,38.7,6.5,39.1,6.4,39.4z"/>
	<path class="st0" d="M15,28.1L9.7,42.9h2.7l1.6-4.7h4l1.5,4.7h3.8l-5-15.5L15,28.1z M14.7,35.8l1.3-3.9l1.2,3.9H14.7z"/>
	<polygon class="st0" points="27.3,27.9 23.7,27.9 23.7,42.9 31.9,42.9 32.1,40.4 27.3,40.4 	"/>
	<rect x="33.1" y="27.9" class="st0" width="3.6" height="15"/>
	<path class="st0" d="M51.8,35.9c-0.3-0.4-0.7-0.7-1.1-0.9c-0.1-0.1-0.2-0.1-0.3-0.2c0.3-0.2,0.5-0.4,0.7-0.7
		c0.3-0.3,0.5-0.7,0.6-1.1c0.1-0.5,0.2-0.9,0.2-1.4c0-0.6-0.1-1.2-0.4-1.8c-0.3-0.5-0.6-0.9-1.1-1.2c-0.5-0.3-1-0.5-1.6-0.6
		c-1-0.2-2-0.2-2.9-0.2h-1l-0.9,0l-0.8,0.1L42.7,28v14.8h0.4c0.3,0,0.6,0.1,1,0.1s0.7,0.1,1.1,0.1l1.1,0h1c0.8,0,1.5-0.1,2.3-0.3
		c0.6-0.2,1.2-0.5,1.7-0.9c0.4-0.4,0.8-0.9,1-1.4c0.2-0.6,0.3-1.2,0.3-1.8c0-0.5-0.1-1-0.2-1.4C52.3,36.7,52.1,36.3,51.8,35.9z
		 M48.3,32.7c0,0.2-0.1,0.3-0.1,0.5c0,0.1-0.1,0.1-0.1,0.2L48,33.5c-0.2,0.1-0.4,0.1-0.5,0.2c-0.3,0.1-0.5,0.1-0.8,0.1h-0.3v-3.6
		c0.4,0,0.7,0,1.1,0.1c0.2,0,0.4,0.1,0.6,0.3c0.2,0.1,0.3,0.3,0.3,0.5c0.1,0.3,0.1,0.6,0.1,0.9C48.4,32.2,48.4,32.5,48.3,32.7z
		 M48.9,39.4c0,0.2-0.1,0.4-0.2,0.6c0,0.1-0.1,0.2-0.2,0.3c-0.1,0.1-0.1,0.1-0.2,0.2c-0.1,0-0.1,0.1-0.2,0.1c-0.1,0-0.3,0.1-0.4,0.1
		c-0.2,0-0.3,0.1-0.5,0.1h-0.5h-0.4v-4.4h0.3c0.6,0,1.3,0.2,1.8,0.6c0.4,0.5,0.6,1.1,0.6,1.7C49,38.7,48.9,39.1,48.9,39.4z"/>
	<path class="st0" d="M62,37.9c0,0.5,0,1-0.1,1.5c0,0.2-0.1,0.5-0.3,0.7c-0.3,0.2-0.5,0.3-0.8,0.4c-0.8,0.2-1.6,0.2-2.3,0.1
		c-0.2,0-0.4-0.1-0.6-0.3c-0.2-0.2-0.3-0.5-0.4-0.7c-0.1-0.5-0.2-1-0.2-1.5v-10h-3.6v9.8c0,0.8,0.1,1.7,0.4,2.5
		c0.2,0.7,0.6,1.2,1.2,1.7c0.5,0.5,1.1,0.8,1.8,1c0.7,0.2,1.5,0.3,2.3,0.3c0.9,0,1.8-0.1,2.7-0.4c0.7-0.3,1.4-0.7,2-1.2
		c0.5-0.5,0.9-1.1,1.2-1.8c0.3-0.7,0.4-1.4,0.4-2.2v-9.6H62V37.9z"/>
	<path class="st0" d="M71.7,31c0.1-0.1,0.2-0.2,0.4-0.3c0.1-0.1,0.3-0.1,0.4-0.1l0.5-0.1c0.5-0.1,1-0.1,1.5,0l1,0.1
		c0.3,0.1,0.7,0.1,1,0.2l0.7,0.2l0.5,0.2l0.7-3l-0.5-0.1c-0.2,0-0.4-0.1-0.7-0.1s-0.6-0.1-0.9-0.1s-0.6-0.1-1-0.1
		c-0.9-0.1-1.7,0-2.6,0.1c-0.6,0.1-1.1,0.3-1.6,0.5c-0.5,0.3-1,0.6-1.5,1c-0.5,0.4-0.9,0.9-1.3,1.5c-0.4,0.6-0.7,1.3-0.8,2
		c-0.2,0.8-0.3,1.7-0.3,2.5c0,1,0.1,2.1,0.3,3.1c0.2,0.9,0.5,1.7,1,2.5c0.5,0.7,1.1,1.3,1.9,1.7c0.9,0.4,1.8,0.6,2.8,0.6
		c0.4,0,0.9-0.1,1.3-0.2c0.4,0,0.8-0.1,1.3-0.2c0.4-0.1,0.8-0.2,1.2-0.3c0.4-0.1,0.8-0.3,1.1-0.5l0.3-0.1v-2.2l-0.7,0.3
		c-0.3,0.1-0.6,0.2-0.9,0.3s-0.6,0.1-1,0.2s-0.7,0.1-1,0.1s-0.7,0-1,0c-0.9,0.1-1.7-0.4-2.1-1.2c-0.5-1.3-0.8-2.6-0.7-4
		c0-1,0.1-2,0.2-3C71.2,31.8,71.4,31.4,71.7,31z"/>
	<polygon class="st0" points="88,34 83.2,34 83.2,27.9 79.7,27.9 79.7,42.9 83.2,42.9 83.2,36.6 88,36.6 88,42.9 91.5,42.9 
		91.5,27.9 88,27.9 	"/>
	<path class="st0" d="M100.5,27.4l-3.2,0.6L92,42.9h2.7l1.6-4.7h4l1.5,4.7h3.8L100.5,27.4z M97,35.8l1.3-3.9l1.2,3.9H97z"/>
	
		<linearGradient id="SVGID_1_" gradientUnits="userSpaceOnUse" x1="458.9479" y1="585.7117" x2="483.0914" y2="585.7117" gradientTransform="matrix(0.2048 0.9788 0.9788 -0.2048 -614.2274 -326.8743)">
		<stop  offset="0" style="stop-color:#5B9145"/>
		<stop  offset="0.29" style="stop-color:#6EA34A"/>
		<stop  offset="1" style="stop-color:#9ACB57"/>
	</linearGradient>
	<path class="st1" d="M40,29.4c0,0,5.6-16.6,20.3-23.5c0,0-11,6.9-16.2,17.5c0,0,9.5,2.7,13.6-2.3S64.1,2.5,72.9,0.2
		c0,0-31.8-3.4-30.8,22.1c-1.4,2.3-2.7,4.7-3.7,7.1c0.2,0.4,0.7,0.6,1.1,0.5C39.7,29.8,39.9,29.6,40,29.4z"/>
	
		<linearGradient id="SVGID_2_" gradientUnits="userSpaceOnUse" x1="402.2075" y1="365.8902" x2="416.7575" y2="365.8902" gradientTransform="matrix(-0.44 0.9 -0.9 -0.44 540.6381 -188.9821)">
		<stop  offset="0" style="stop-color:#5B9145"/>
		<stop  offset="0.29" style="stop-color:#6EA34A"/>
		<stop  offset="1" style="stop-color:#9ACB57"/>
	</linearGradient>
	<path class="st2" d="M38.8,28.1c0,0-0.8-10.5-8.3-16.8c0,0,5.4,5.7,6.8,12.6c0,0-5.9,0.1-7.6-3.4S28.7,8.7,24,6
		c0,0,19,2.8,14.6,17.5c0.5,1.5,0.9,3.1,1.1,4.7c-0.2,0.2-0.5,0.3-0.7,0.1C38.9,28.3,38.9,28.2,38.8,28.1z"/>
	
		<linearGradient id="SVGID_3_" gradientUnits="userSpaceOnUse" x1="1.000002e-02" y1="21.5127" x2="105.85" y2="21.5127" gradientTransform="matrix(1 0 0 -1 0 68.0054)">
		<stop  offset="0" style="stop-color:#198880"/>
		<stop  offset="0.58" style="stop-color:#CFAD39"/>
		<stop  offset="1" style="stop-color:#D6AF33"/>
	</linearGradient>
	<rect x="0" y="46.3" class="st3" width="105.8" height="0.4"/>
</g>
</svg>
