<?xml version="1.0" encoding="utf-8"?>
<!-- Generator: Adobe Illustrator 24.1.0, SVG Export Plug-In . SVG Version: 6.00 Build 0)  -->
<svg version="1.1" id="New_Layer" xmlns="http://www.w3.org/2000/svg" xmlns:xlink="http://www.w3.org/1999/xlink" x="0px" y="0px"
	 viewBox="0 0 341.5 209" style="enable-background:new 0 0 341.5 209;" xml:space="preserve">
<style type="text/css">
	.st0{fill-rule:evenodd;clip-rule:evenodd;}
</style>
<g>
	<path class="st0" d="M210,1.2c0,1.1,0.4,2.2,1.1,3c1.2,1.2,0.8,7.4-0.5,10.5c-0.6,1.3-0.4,1.8,0.8,1.8s1.5,0.8,1.1,3.7
		c-0.3,2.1-1.2,9.9-2.1,17.3s-2.2,18.7-3,25c-1.7,13.5-1.8,20.8-0.4,24.7c1.6,3.2,3.5,6.3,5.5,9.3c2.4,3.6,5,8.7,5.6,11.5
		s1.6,6.8,2.2,9c1.7,7.4,9.6,12.5,19.2,12.5c5.1,0,14.7-2.3,20.9-5c1.8-0.8,3.7-1.4,5.7-1.8c0.5,0.2-1.8,4.8-5.1,10.3
		c-7.3,12.1-7.7,15.6-2.9,22.9c3.4,5,6.9,16.6,6.9,22.6c-0.2,3-0.6,6.1-1.4,9c-0.6,1.8-1,3.7-1.3,5.6c0.1,0.1,2.7,0.9,5.7,1.9
		c3.6,1.2,7.1,2.6,10.5,4.1c8.4,3.8,12.7,4.8,20.5,4.8c13.3,0.1,18.5-5.1,18.5-18.5c-0.1-8.7-1.7-12.3-6.9-14.4
		c-4-1.7-6.2-4.9-8.3-11.8c-0.8-2.9-2.1-5.9-2.9-6.8c-1.3-1.4-0.7-2.5,4.9-9.5c3.5-4.4,6.9-8.9,7.6-10.1c1-2,1.7-2.2,5.4-1.7
		c9.3,1.5,18.4-4,21.5-12.9c3-8.1,3.5-14.7,1.7-21.9c-2.8-11.2-5.8-20.8-6.4-20.8c-0.3,0-2.4,3.3-4.6,7.2c-2.5,4.5-5.3,8.9-8.4,13.1
		l-4.3,6l-2.5-3.2c-1.9-2.1-4.1-3.9-6.6-5.3c-2.6-1.4-4.9-3.1-7-5.2c-2.5-2.9-2.7-3.5-2.1-9.1c0.8-8.1,2.5-11.7,9.2-19.3
		c3.1-3.6,7.2-8.3,9.1-10.5l3.5-3.9l-2.4-4.4c-1.2-2.4-2.6-4.4-3-4.4s-1.5,1.1-2.4,2.5s-2.2,2.5-2.9,2.3c-1.2,0-2.4,0.2-3.5,0.6
		c-1.9,0.6-2.1,1-1.1,2.2c1.4,1.7,0,3.1-6.3,6.4c-2.6,1.5-5,3.4-7.2,5.5l-3.5,3.5l-1.6-2.3c-1.3-2.1-1.3-2.7,0.3-5.8
		c1-2,2.3-3.4,3-3.1c0.8,0.1,1.6-0.4,1.8-1.2c0.3-0.9,1.7-1.6,3-1.6c2.6,0,3.2-1.8,1.2-3.8c-0.9-0.9-0.7-1.2,1-1.2
		c2.3,0,3.1-2.5,1.1-3.2c-0.8-0.3-0.8-1,0.2-2.7c1.2-1.9,1.2-2.3-0.3-3.2c-1-0.6-1.5-1.8-1.1-2.9c0.4-1.5,0-2-1.5-2s-2-0.6-1.9-2.8
		s-0.2-2.7-2.1-2.5s-2.1-0.1-1.6-2.2c0.7-2.8,0.2-3-2.7-1.5c-1.7,1-1.9,0.7-1.9-2c0-2.9-1.3-4-2.5-2s-2.5,1-2.5-1.5
		c0-2.3-0.2-2.5-2.1-1.4c-1.7,0.9-2.3,0.7-3.6-1.1s-1.7-1.9-2.4-0.9c-0.6,1.3-0.9,2.7-0.9,4.1c0,2.1-0.4,2.5-2,2.1s-2,0-2,1.5
		c0,1.1-0.6,2.1-1.6,2.6c-0.9,0.4-1.4,0.9-1,1.3s-0.2,1.5-1.1,2.5c-1.3,1.4-1.4,2.1-0.5,3c1.6,1.6,1.5,2.8-0.3,2.8s-1.9,1.2-0.3,2.8
		c1,1,1,1.5-0.2,2.2s-1.2,1,0.3,1.6c1.7,0.6,1.6,0.8-0.3,2.1c-2.4,1.7-1.6,3.6,1.2,2.7c1.7-0.5,1.8-0.3,0.9,1.5s-0.9,2.1,0.3,2.1
		c1,0,1.2,0.7,0.9,2.2c-0.3,1.3-0.2,2,0.2,1.6c1.1-1.1,4.1,1.3,7,5.6c1.9,2.8,2.3,4.1,1.5,5.6s-1.6,1.2-7-4.1
		c-3.9-3.8-5.8-6.3-5.4-7.4s-0.2-1.7-2.5-2.1c-3.5-0.7-6-3.7-9-10.5c-1-2.4-4.4-7.7-7.5-11.8c-3.8-5.1-5.3-7.8-4.6-8.5
		c1.6-1.6,1.2-2.3-1.6-3c-1.8-0.7-3.5-1.8-4.8-3.3c-1.8-2.1-3.6-2.8-9-3.4c-4.1-0.5-7.8-1.6-9.6-2.9C210.2-0.5,210-0.5,210,1.2z
		 M235.7,26.5c2.1,4.5,4.5,8.8,7.2,13c2.3,3.2,4.4,6.5,6.3,10c2,3.6,6.4,10.8,9.8,16l6.2,9.4l-0.7,6.9l-0.6,6.8l3.9,3.7
		c5.9,5.5,7.7,10.3,5.3,14.1c-1.6,2.5-9.2-1.3-17-8.6C241,84,224.4,52.9,219,28.6c-0.9-4-1.6-8-2-12.1c0-2.8,0.2-3,3.9-3
		c2.2,0,4.3-0.5,4.7-1.2C226.7,10.5,230.6,15.9,235.7,26.5z"/>
	<path class="st0" d="M0,128.5v44h17v-35h26.5V172l8.8,0.3l8.7,0.3V99.5h14.7c12.7,0,15.2,0.3,18.9,2c6.4,2.9,9.1,10.5,6.2,16.8
		c-1.3,2.7-3.5,4.9-6.2,6.2c-3.5,1.6-6.2,2-15.4,2H67.9l7.8,11.2c4.2,6.2,11.4,16.5,15.8,22.8l8,11.5l9.3,0.3c5,0.1,9.2-0.1,9.2-0.5
		s-5.1-7.8-11.3-16.3l-11.4-15.4l5.5-2.3c8.4-3.4,13-8.5,15.9-17.8c4.1-12.5-1.6-26.2-13.4-32.1L97.5,85h-54v34.5H17v-35H0V128.5z"
		/>
	<path class="st0" d="M120,99.3v14.1l20.1,27.3c11,15,20.6,27.9,21.3,28.6c1,1,3.6-1.9,13.2-14.8c6.5-8.8,12.2-16,12.7-16
		s0.7,7.6,0.7,17v17h17V85.2l-8.7,11.5c-4.9,6.3-14.4,19-21.3,28.1s-12.7,16.4-13.1,15.9s-10-13-21.3-28.1L120,85.2V99.3z"/>
	<path class="st0" d="M65.3,187.5c-1,3.8-0.9,4,1.2,4c2.7,0,5.2-2.5,3.5-3.5c-0.8-0.5-0.8-1.1-0.1-1.9c1.3-1.5,0.4-2.6-1.9-2.6
		C67,183.5,66,184.9,65.3,187.5z M69,185.5c0,0.6-0.4,1-1,1c-0.5,0-1-0.5-1-1c0-0.6,0.4-1,1-1c0.5,0,1,0.4,1,0.9
		C69,185.5,69,185.5,69,185.5z M69,188.4c0,1.2-2,2.5-2.7,1.8s0.6-2.7,1.8-2.7C68.6,187.5,69,187.9,69,188.4L69,188.4L69,188.4z"/>
	<path class="st0" d="M73,185.5c0.6,1.2,0.8,2.6,0.5,4c-0.4,1.1-0.2,2,0.3,2s1.2-1.1,1.4-2.5s0.1-2.5-0.3-2.5S74,185.8,74,185
		s-0.5-1.5-1-1.5C72.3,183.5,72.3,184.2,73,185.5z"/>
	<path class="st0" d="M76,184.6c0,0.5,0.5,0.7,1,0.4s1-0.8,1-1.1s-0.4-0.4-1-0.4C76.4,183.6,76,184.1,76,184.6z"/>
	<path class="st0" d="M82,185.6c-0.1,1.4-0.4,2.7-1,4c-0.8,1.5-0.7,1.9,0.5,1.9c0.8,0,1.4-0.3,1.4-0.8c-0.4-2.1,0.3-3.2,1.7-3.2
		c1.1,0,1.5,0.6,1.1,2c-0.4,1.6,0,2,1.8,2c1.2,0,2.3-0.5,2.9-1.5c0.3-0.8,1-1.5,1.6-1.5s1,0.7,1,1.5s0.5,1.5,1.1,1.5
		s0.9-0.9,0.5-2.3c-0.3-1.3-0.5-2.7-0.6-4c0-0.9-0.5-1.7-1.1-1.7s-0.9,0.9-0.6,2s0,2-0.5,2c-1,0.3-1.8,0.9-2.4,1.7
		c-1.8,2.6-2.8,0.9-1.6-2.6c0.7-1.9,0.7-3.1,0.1-3.1S87,184.2,87,185s-0.9,1.5-2.1,1.5c-1.5,0-1.9-0.5-1.5-1.5
		c0.3-0.8,0.1-1.5-0.4-1.5S82,184.4,82,185.6z"/>
	<path class="st0" d="M97.4,187.5c-0.9,3.2-0.9,4,0.2,4c0.8,0,1.1-0.6,0.8-1.5c-0.8-2,0.6-1.9,2.1,0.2c1.2,1.6,1.3,1.5,1.2-0.7
		c0-1.3,0.1-2.7,0.4-4c0.2-0.9-0.4-1.6-1.6-1.8C98.8,183.5,98.2,184.2,97.4,187.5z M101,185.4c0,0.7-0.4,1.3-1,1.6
		c-0.5,0.3-1-0.1-1-0.9s0.5-1.6,1-1.6C100.5,184.5,101,184.9,101,185.4C101,185.4,101,185.4,101,185.4L101,185.4z"/>
	<path class="st0" d="M104,187.5c0,3.3,0.3,4,1.9,4c2.2,0,2.9-0.8,4.1-5c0.5-1.8,0.5-3-0.1-3s-0.9,0.9-0.9,1.9
		c0,3.1-1.1,5.1-2.7,5.1c-1.2,0-1.4-0.8-0.9-3.5c0.4-2.2,0.3-3.5-0.4-3.5C104.5,183.5,104,185.3,104,187.5z"/>
	<path class="st0" d="M112.8,185.3c-0.3,1.2-0.2,2,0.2,1.7s1,0.5,1.2,1.7s0.6,1.8,1,1.3s0.1-2.3-0.6-4
		C113.4,183.2,113.3,183.1,112.8,185.3z"/>
	<path class="st0" d="M117.2,185.6c-1,1.5-1,1.9-0.1,1.4s1-0.1,0.5,1.9c-0.4,1.5-0.2,2.6,0.4,2.6s1-1.1,1-2.4c0-1.4,0.2-2.7,0.6-4
		C120.5,182.8,118.7,183.2,117.2,185.6z"/>
	<path class="st0" d="M124.2,184.1c0.3,0.3,0.2,2-0.2,3.9l-0.8,3.4l3.9-0.2c2.1-0.1,4.1-0.7,4.3-1.4c0.7-1.8,2.6-1.6,2.6,0.2
		c0,0.8,0.3,1.5,0.8,1.5s0.6-1.8,0.4-4s-0.9-4-1.4-4s-0.8,0.9-0.5,2s0,2-0.5,2c-1,0.3-1.8,0.9-2.4,1.7c-1.3,1.7-1.3,1.7-1.5-0.2
		c-0.1-1.3-0.1-2.5,0-3.8c0.1-0.9-0.3-1.7-0.9-1.7s-0.9,0.4-0.5,0.9c0.3,0.6,0.1,1.3-0.5,1.6c-0.5,0.3-1-0.1-1-0.9s-0.5-1.6-1.2-1.6
		S123.9,183.7,124.2,184.1z M127.2,189c-0.1,0.6-0.5,1.1-1.1,1.3c-0.6,0.2-1.1-0.4-1.1-1.3s0.5-1.5,1.1-1.3
		C126.7,187.9,127.1,188.4,127.2,189L127.2,189z"/>
	<path class="st0" d="M138.4,186.2c-0.3,1.6-0.7,3.3-0.9,4s1,1.2,4.1,1.1c2.5,0,4.3-0.2,4.1-0.5s-0.1-2,0.3-3.9s0.4-3.4,0-3.4
		s-1.1,1.5-1.4,3.3c-0.5,2.6-1.1,3.3-3.1,3.5c-1.4,0.1-2.5,0.1-2.5-0.1s0.4-1.7,0.9-3.5s0.6-3.2,0-3.2S138.8,184.7,138.4,186.2z"/>
	<ellipse cx="29.5" cy="187.5" rx="28.5" ry="1"/>
	<ellipse cx="181.5" cy="187.5" rx="28.5" ry="1"/>
	<path class="st0" d="M110.6,190c-0.3,0.8-0.1,1.5,0.4,1.5s1-0.7,1-1.5s-0.2-1.5-0.4-1.5S111,189.2,110.6,190z"/>
	<path class="st0" d="M76.1,203.5c0,3.7,0.2,4.1,0.9,2.2c1.3-3,2.8-2.8,3.3,0.5c0.4,2.1,0.4,1.9,0.3-0.7c-0.1-2.4-0.6-3.5-1.6-3.5
		c-0.9-0.1-1.8-0.7-2.2-1.5C76.4,199.7,76.1,201,76.1,203.5z"/>
	<path class="st0" d="M121.3,204c-0.1,2.7,0.1,4.2,0.4,3.2c0.5-1.8,0.5-1.8,2.6,0c1.9,1.6,2,1.6,0.8,0.1c-0.7-1-0.9-2.2-0.7-3.4
		c0.5-1.4,0.4-1.5-0.8-0.5s-1.5,0.7-1.9-1.6C121.5,200.3,121.3,201.2,121.3,204z"/>
	<path class="st0" d="M83.5,202.5c-0.3,0.6-0.3,1,0.2,0.9c2.3-0.4,2.5,0.3,0.5,1.7c-2.6,1.8-2,3.4,1.2,3.2c2-0.2,2.2-0.6,1.7-3.2
		C86.4,202,84.6,200.7,83.5,202.5z M86,206.5c0,0.5-0.7,1-1.6,1s-1.2-0.5-0.9-1c0.3-0.6,0.9-1,1.6-1C85.6,205.5,86,206,86,206.5
		C86,206.5,86,206.5,86,206.5z"/>
	<path class="st0" d="M99.3,202.3c-1.4,0.3-2.5,1.4-2.7,2.8c-0.8,3.1-2.6,3.1-2.6-0.1c0-1.4-0.4-2.5-1-2.5c-1.2,0-1.3,3-0.2,4.8
		c1.3,2,7.2,0.4,7.2-1.9c0-3,2-2.2,2.1,0.8l0.1,2.8l0.7-3c0.8-3.8,2.4-3.8,3.3,0.1c0.6,2.8,0.6,2.7,0.5-0.6
		C106.5,201.8,105.5,201.4,99.3,202.3z"/>
	<path class="st0" d="M109.3,202.2c-1.8,0.7-1.6,5.2,0.3,6c0.9,0.3,1.9,0.1,2.6-0.5c0.8-0.8,0.5-0.9-1.1-0.5s-2.1,0.1-2.1-1.4
		c0-2.7,1-3.5,2.7-2.2c0.8,0.7,1.3,0.8,1.3,0.1C113,202.5,110.9,201.6,109.3,202.2z"/>
	<path class="st0" d="M115,202.6c-1.3,0.9-1.2,1,0.2,0.5c0.8-0.3,1.7-0.2,2.3,0.4c0.3,0.5-0.4,1.1-1.5,1.5c-3.1,1-2.5,3.4,0.8,3.3
		c2.7-0.1,2.8-0.3,2.3-3.1C118.4,201.8,117.2,201,115,202.6z M117.5,206.5c-0.4,0.5-0.9,0.9-1.6,1c-0.6,0-0.7-0.5-0.4-1
		c0.3-0.6,0.9-1,1.6-1C117.7,205.5,117.8,205.9,117.5,206.5z"/>
	<path class="st0" d="M128.3,202.2c-1.8,0.7-1.6,5.2,0.3,6c0.9,0.3,2,0,2.7-0.6c0.9-0.9,0.8-1.1-0.4-0.6c-0.8,0.4-1.8,0.3-2.4-0.4
		c-0.3-0.7,0.3-1.1,1.5-1.1c1.5,0,2-0.5,1.8-1.7C131.5,202,130.2,201.4,128.3,202.2z M130.5,203.5c0.3,0.5-0.1,1-1,1s-1.3-0.5-1-1
		s0.8-1,1-1S130.2,202.9,130.5,203.5L130.5,203.5z"/>
	<path class="st0" d="M136,203c-1.6,1.9-0.3,5.5,2.1,5.5c1,0,1.9-0.4,1.9-0.9s-0.7-0.8-1.6-0.7c-2.5,0.2-2.9-2.4-0.5-3.1
		c1.1-0.3,1.8-0.9,1.5-1.4C138.6,201.1,137.4,201.3,136,203z"/>
	<path class="st0" d="M142.4,202.9c-1,2.6,0.1,5.1,2.1,5.1c3.7,0,2.9-6.4-0.8-6.5C143.3,201.5,142.7,202.1,142.4,202.9z
		 M145.7,205.9c-0.4,0.9-1.1,1.6-1.7,1.6c-1.1,0-1.4-3.3-0.3-4.4S146.3,204.2,145.7,205.9z"/>
	<path class="st0" d="M149.3,202.2c-0.7,0.3-1.2,1.9-1.2,3.6c0.2,3.1,0.2,3.1,0.6,0.4c0.2-1.5,1.1-2.7,1.9-2.7s1.4,1.1,1.5,2.7
		l0.1,2.8l0.7-3c0.8-3.8,2.4-3.8,3.2,0.1c0.6,2.7,0.7,2.7,0.8,0.4c0.1-1.2-0.2-2.4-0.7-3.5C155.5,201.9,151.4,201.5,149.3,202.2z"/>
	<path class="st0" d="M50.6,204.5c0.8,3.1,2.4,5,2.4,2.9c-0.2-1.3-0.8-2.5-1.6-3.5C50,202.1,49.9,202.1,50.6,204.5z"/>
	<path class="st0" d="M53,204.1c0,0.8,0.5,1.2,1,0.9c0.6-0.3,1-0.9,1-1.6c0-0.5-0.4-0.9-0.9-0.9c0,0,0,0-0.1,0
		C53.5,202.5,53,203.2,53,204.1z"/>
	<path class="st0" d="M57,204c0,0.8-0.4,1.5-1,1.5s-1,0.7-1,1.5c0,2.3,1.7,1.8,2.4-0.8l0.7-2.2l1,2.4l1,2.5l1.4-2.8
		c1.8-3.4,1.8-3.6,0.5-3.6c-0.5,0-1,0.8-1,1.7c-0.1,1.7-0.1,1.7-1.4,0C58,202.1,57,202,57,204z"/>
	<path class="st0" d="M65,204c0,0.8-0.4,1.5-1,1.5s-1,0.7-1,1.5c0,2.5,1.7,1.7,2.5-1.3l0.7-2.7l1.2,3l1.3,3l0.8-2.5l0.8-2.5l0.9,2.5
		c0.7,2,1.1,2.2,1.8,1c0.6-1.1,0.9-2.3,0.9-3.5v-2l-0.9,2c-0.8,1.9-0.8,1.9-1.6,0.1s-0.8-1.8-1.9-0.2s-1.3,1.5-1.9,0.1
		C66.9,202.1,65,202,65,204z"/>
	<path class="st0" d="M89,205.5c0,1.6,0.2,3,0.4,3s0.6-1.4,0.8-3s0.1-3-0.4-3S89,203.8,89,205.5z"/>
</g>
</svg>
