<?xml version="1.0" encoding="UTF-8" standalone="no"?>
<!-- Created with Inkscape (http://www.inkscape.org/) -->

<svg
   width="10.382319mm"
   height="6.043292mm"
   viewBox="0 0 10.382319 6.0432921"
   version="1.1"
   id="svg5"
   sodipodi:docname="Hungry Bird-01.svg"
   inkscape:version="1.1.1 (1:1.1+202109281949+c3084ef5ed)"
   xmlns:inkscape="http://www.inkscape.org/namespaces/inkscape"
   xmlns:sodipodi="http://sodipodi.sourceforge.net/DTD/sodipodi-0.dtd"
   xmlns="http://www.w3.org/2000/svg"
   xmlns:svg="http://www.w3.org/2000/svg">
  <sodipodi:namedview
     id="namedview7"
     pagecolor="#ffffff"
     bordercolor="#666666"
     borderopacity="1.0"
     inkscape:pageshadow="2"
     inkscape:pageopacity="0.0"
     inkscape:pagecheckerboard="0"
     inkscape:document-units="mm"
     showgrid="false"
     fit-margin-top="0"
     fit-margin-left="0"
     fit-margin-right="0"
     fit-margin-bottom="0"
     inkscape:zoom="3.47789"
     inkscape:cx="-31.197076"
     inkscape:cy="40.685588"
     inkscape:window-width="1600"
     inkscape:window-height="875"
     inkscape:window-x="0"
     inkscape:window-y="0"
     inkscape:window-maximized="1"
     inkscape:current-layer="layer1" />
  <defs
     id="defs2">
    <style
       id="style824">.cls-1{fill:#231f20;}</style>
    <style
       id="style1046">.cls-1{fill:#10aa4b;}.cls-2{fill:#935e25;}</style>
    <style
       id="style1269">.cls-1{fill:#cecccd;}</style>
    <style
       id="style1658">.cls-1{fill:#231f20;}.cls-2{fill:#d51d4a;}</style>
  </defs>
  <g
     inkscape:label="Layer 1"
     inkscape:groupmode="layer"
     id="layer1"
     transform="translate(-141.10666,-168.47271)">
    <g
       id="g1723"
       transform="matrix(0.26458333,0,0,0.26458333,136.51614,165.5235)">
      <path
         class="cls-1"
         d="M 17.35,27.1 V 18.51 H 19 l 3.51,5.73 v -5.73 h 1.61 v 8.59 h -1.7 L 19,21.49 v 5.61 z"
         id="path1662" />
      <path
         class="cls-1"
         d="m 26,18.51 h 1.73 v 4.65 a 10.25,10.25 0 0 0 0.06,1.43 1.47,1.47 0 0 0 0.53,0.85 1.89,1.89 0 0 0 1.15,0.32 1.75,1.75 0 0 0 1.11,-0.3 1.19,1.19 0 0 0 0.45,-0.74 8.52,8.52 0 0 0 0.08,-1.46 v -4.75 h 1.73 V 23 a 11,11 0 0 1 -0.14,2.18 2.36,2.36 0 0 1 -0.51,1.08 2.68,2.68 0 0 1 -1,0.7 4.35,4.35 0 0 1 -1.66,0.26 A 4.71,4.71 0 0 1 27.65,27 2.71,2.71 0 0 1 26.65,26.26 2.31,2.31 0 0 1 26.17,25.31 10,10 0 0 1 26,23.09 Z"
         id="path1664" />
      <path
         class="cls-1"
         d="m 34.67,27.1 v -8.59 h 3.65 a 6.1,6.1 0 0 1 2,0.23 2,2 0 0 1 1,0.82 2.47,2.47 0 0 1 0.37,1.35 2.33,2.33 0 0 1 -0.56,1.6 2.75,2.75 0 0 1 -1.7,0.79 4.4,4.4 0 0 1 0.93,0.72 10.44,10.44 0 0 1 1,1.4 l 1,1.68 H 40.32 L 39.06,25.23 A 13.07,13.07 0 0 0 38.15,24 1.29,1.29 0 0 0 37.63,23.65 2.74,2.74 0 0 0 36.75,23.55 H 36.4 v 3.55 z m 1.73,-5 h 1.29 A 6.59,6.59 0 0 0 39.25,22 1,1 0 0 0 39.73,21.64 1.11,1.11 0 0 0 39.91,20.99 1.07,1.07 0 0 0 39.68,20.29 1.1,1.1 0 0 0 39,20 q -0.21,0 -1.26,0 H 36.4 Z"
         id="path1666" />
      <path
         class="cls-1"
         d="M 43.28,27.1 V 18.51 H 45 v 8.59 z"
         id="path1668" />
      <path
         class="cls-1"
         d="m 46.61,18.53 h 1.65 v 1.18 a 3.73,3.73 0 0 1 -0.13,1.12 1.65,1.65 0 0 1 -0.46,0.75 2.47,2.47 0 0 1 -0.87,0.51 l -0.32,-0.68 a 1.38,1.38 0 0 0 0.7,-0.45 1.29,1.29 0 0 0 0.23,-0.78 h -0.8 z"
         id="path1670" />
      <path
         class="cls-1"
         d="m 49.56,24.3 1.69,-0.16 a 2,2 0 0 0 0.61,1.24 1.85,1.85 0 0 0 1.26,0.4 2,2 0 0 0 1.26,-0.35 A 1,1 0 0 0 54.81,24.6 0.78,0.78 0 0 0 54.63,24.08 1.41,1.41 0 0 0 54,23.71 c -0.2,-0.07 -0.66,-0.2 -1.38,-0.38 a 4.64,4.64 0 0 1 -2,-0.85 2.25,2.25 0 0 1 -0.42,-2.95 2.38,2.38 0 0 1 1.07,-0.87 4.29,4.29 0 0 1 1.69,-0.3 3.66,3.66 0 0 1 2.44,0.71 2.52,2.52 0 0 1 0.9,1.93 H 54.56 A 1.47,1.47 0 0 0 54.08,20 1.75,1.75 0 0 0 53,19.79 a 2.05,2.05 0 0 0 -1.19,0.31 0.67,0.67 0 0 0 0,1.06 4.68,4.68 0 0 0 1.6,0.57 8.56,8.56 0 0 1 1.87,0.62 2.44,2.44 0 0 1 1,0.88 2.71,2.71 0 0 1 -0.15,2.77 2.38,2.38 0 0 1 -1.16,0.95 4.83,4.83 0 0 1 -1.87,0.32 3.73,3.73 0 0 1 -2.5,-0.75 3.3,3.3 0 0 1 -1.04,-2.22 z"
         id="path1672" />
      <path
         class="cls-2"
         d="m 29.82,11.16 c 0,0 0,0 0.06,0 0.06,0 0,0 0.05,0.05 v 0 c 0,0 0,-0.05 0,-0.06 0,-0.01 0,0 0,0.06 0,0.06 0,0.06 0,0.1 a 0.19,0.19 0 0 0 0,-0.07 v 0 0 a 0.38,0.38 0 0 1 0.14,0.21 c 0,0.16 0,0.31 0.05,0.46 0,0.55 0.06,1.1 0.09,1.64 v 0 a 7.35,7.35 0 0 1 0.4,-1.31 2.68,2.68 0 0 1 0.35,-0.62 l 0.16,-0.16 a 0.4,0.4 0 0 1 0.53,0 2.25,2.25 0 0 1 0.37,0.54 1.77,1.77 0 0 1 0.19,0.67 6.79,6.79 0 0 1 0,1.1 7.61,7.61 0 0 1 -0.15,1.18 0.19,0.19 0 0 1 0,0.08 v 0 0 c 0,-0.11 0,-0.22 0,-0.34 0,-0.12 0,-0.54 0.05,-0.81 v 0 c 0,0.42 -0.06,0.84 -0.11,1.25 v 0 0 c 0,-0.06 0,-0.12 0,-0.18 0,-0.37 0.05,-0.74 0,-1.11 v -0.05 0 c 0,0 0,0.06 0,0.08 l -0.05,1.05 a 1.27,1.27 0 0 1 0,0.2 v 0 0 0 -0.26 0 c 0,0 0,0 0,0 V 15 A 0.43,0.43 0 0 0 32,15 v 0 -0.25 0 0.25 0 c 0,0 0,-0.07 0,-0.11 l -0.06,-0.74 -0.06,-0.72 c 0,-0.34 -0.08,-0.69 -0.11,-1 0,-0.13 0,-0.25 0,-0.38 a 1.17,1.17 0 0 0 -0.05,-0.2 0.33,0.33 0 0 0 -0.07,-0.13 0.08,0.08 0 0 0 -0.13,0 1.26,1.26 0 0 0 -0.26,0.31 4.63,4.63 0 0 0 -0.39,1 11.75,11.75 0 0 0 -0.34,1.45 c 0,0.22 -0.09,0.44 -0.14,0.67 v 0 c 0,0 0,0.06 -0.06,0.05 -0.06,-0.01 0,0 0,-0.07 a 0.71,0.71 0 0 0 0,-0.14 c 0,0 0,0 0,0 v 0 0 c 0,0.07 0,0.13 0,0.2 0,0.07 0,0 0,0 v -0.68 0 0.27 c 0,0 0,0 0,0 0,0 0,0.06 0,0.09 0,0.03 0,0.19 0,0.29 v 0 c 0,0 0,0 0,0 v 0 c 0,0 0,0 0,-0.07 a 2.64,2.64 0 0 0 0,-0.28 0.14,0.14 0 0 0 0,-0.06 v 0 L 30,15 a 0.2,0.2 0 0 1 0,0.07 h -0.05 c 0,0 0,0 -0.05,0 A 1.2,1.2 0 0 1 29.79,14.61 9.8,9.8 0 0 1 29.74,13.4 c 0,-0.54 0,-1.09 0,-1.63 a 1.82,1.82 0 0 1 0,-0.32 0.84,0.84 0 0 1 0.08,-0.2 v 0 z m 0,0.06 a 0.68,0.68 0 0 0 0,0.2 v 0 z m 0,1.18 v 0 -0.93 0 z m 0.24,-0.74 v 0 a 1.69,1.69 0 0 0 0,-0.23 v 0 0 C 30,11.49 30,11.57 30,11.66 Z m 0.44,1.88 0.24,-0.86 a 6.46,6.46 0 0 0 -0.26,0.86 z M 31,11.87 v 0 l -0.06,0.12 v 0 z m 0.75,-0.15 v 0 l 0.05,0.1 v 0 z m 0.06,0.4 0.11,0.79 A 4.18,4.18 0 0 0 31.8,12.12 Z m 0.16,0 v 0 -0.18 0 C 31.93,12 31.94,12.05 32,12.12 Z m 0.1,1 A 2.59,2.59 0 0 0 32,12.41 c 0,0.25 0,0.48 0.06,0.72 z m 0,-0.73 0.09,0.8 A 2.15,2.15 0 0 0 32.08,12.4 Z"
         id="path1674" />
      <path
         class="cls-2"
         d="m 34.43,15.07 c -0.09,0.09 -0.18,0 -0.26,-0.14 a 1.39,1.39 0 0 1 -0.1,-0.26 c 0,-0.13 0,-0.27 -0.07,-0.4 a 0.25,0.25 0 0 1 0,-0.09 v 0.06 l -0.37,0.55 a 0.57,0.57 0 0 1 -0.32,0.2 0.45,0.45 0 0 1 -0.4,-0.09 0.92,0.92 0 0 1 -0.29,-0.43 1.46,1.46 0 0 1 -0.06,-0.9 1.25,1.25 0 0 1 0.51,-0.71 0.71,0.71 0 0 1 0.45,-0.09 0.67,0.67 0 0 1 0.44,0.27 v 0 0 C 33.96,13.04 34,13 34,13 a 0.79,0.79 0 0 1 0.1,-0.34 l 0.08,-0.09 h 0.07 c 0,0 0,0 0,0.05 v 0 0.05 c 0,0 0,0 0.05,0 a 1.52,1.52 0 0 1 0,0.21 c 0,0.22 0,0.44 0,0.66 a 8.37,8.37 0 0 0 0,1.12 c 0.12,0.17 0.19,0.34 0.13,0.41 z m -1.81,-1.21 v 0 0.14 0 z m 0.07,0.4 v -0.13 0 0.12 z m 0.08,-0.14 a 0.65,0.65 0 0 0 0,0.13 v 0 -0.12 z m 0.08,0.41 -0.06,-0.12 c 0,0.07 0.01,0.1 0.06,0.12 z M 32.8,13.67 v 0 c 0,0 0,-0.07 0,-0.11 v 0 z m 0,0.36 v 0 -0.19 A 0.21,0.21 0 0 0 32.83,14 Z m 0.08,0.66 -0.08,-0.09 v 0 c 0.04,0.07 0.05,0.08 0.11,0.09 z M 32.8,13.48 v 0 l 0.06,-0.12 v 0 a 0.13,0.13 0 0 0 -0.03,0.12 z m 0,0.65 a 0.5,0.5 0 0 1 0,0.12 v 0 z m 0,-0.84 v 0 l 0.06,-0.08 v 0 z m 0,0.46 v -0.12 0 0.13 z m 0.08,0.95 h -0.06 c 0,0 0.18,0.03 0.18,0 z m 0,-1.38 v 0 l 0.06,-0.07 v 0 z m 0,-0.23 v 0 L 32.96,13 v 0 z m 0.08,1.71 H 32.9 v 0 c 0,0 0.1,0.02 0.16,0 z m 0.86,-1.09 a 1.09,1.09 0 0 0 -0.19,-0.33 0.23,0.23 0 0 0 -0.07,-0.07 c -0.1,-0.06 -0.2,-0.1 -0.3,0 a 1,1 0 0 0 -0.33,0.74 1,1 0 0 0 0.09,0.45 c 0,0.08 0.08,0.09 0.15,0 a 1.29,1.29 0 0 0 0.16,-0.17 l 0.49,-0.6 c 0,0 0.11,-0.01 0.1,-0.02 z m -0.87,-0.51 0.07,-0.06 c 0,0 0.04,0.01 0.03,0.06 z m 0.09,-0.16 v 0 h 0.08 v 0 c 0,0 0.04,-0.04 0.02,-0.04 z m 0.14,0 h -0.07 v 0 z m 0,-0.07 v 0 c 0,0 0,0 0.08,0 z m 0.33,1.46 v 0 l -0.17,0.21 v 0 z M 33.54,13 h 0.07 v 0 z m 0.53,0.11 v 0 a 0.62,0.62 0 0 1 0,0.13 v 0 z m 0.14,0.84 v -1.16 0 c 0,0 0,0 0,0 V 13.56 14 Z m 0,-1.19 v 0 c 0,-0.05 0,-0.1 0,-0.15 v 0 z m 0.06,1.82 v -0.21 0 a 1.49,1.49 0 0 1 0,0.21 z m 0,-1.58 v 0 0.31 0 z"
         id="path1676" />
      <path
         class="cls-2"
         d="m 36.23,13.69 a 11.08,11.08 0 0 0 0,1.15 1.13,1.13 0 0 1 0,0.18 c 0,0 0,0 0,0 v 0 c 0,0 0,-0.08 0,-0.12 0,-0.04 0,-0.22 0,-0.34 0,0.17 0,0.33 0,0.5 v 0 c 0,0 0,0 0,-0.05 v -0.17 c 0,0 0,0 0,-0.06 a 0.34,0.34 0 0 0 0,0.26 c 0,0 0,0 0,0 v 0 a 0.23,0.23 0 0 1 -0.16,-0.18 c 0,-0.13 0,-0.26 -0.08,-0.38 a 0.35,0.35 0 0 0 0,-0.13 v 0 c -0.08,0.16 -0.16,0.32 -0.25,0.48 a 0.43,0.43 0 0 1 -0.3,0.2 A 0.26,0.26 0 0 1 35,15 0.63,0.63 0 0 1 34.78,14.71 2.2,2.2 0 0 1 34.62,14.1 a 3.47,3.47 0 0 1 0.07,-1.2 0.72,0.72 0 0 1 0.1,-0.24 0.27,0.27 0 0 1 0.1,-0.08 H 35 l -0.09,1.05 c 0,0.1 0,0.2 0,0.3 v 0 c 0,-0.08 0,-0.15 0,-0.23 0,-0.27 0,-0.54 0.06,-0.82 a 0.88,0.88 0 0 0 0,-0.16 c 0,-0.05 0,-0.09 0,-0.14 v 0 a 0.17,0.17 0 0 0 0,0.05 v 0 0 a 0.54,0.54 0 0 1 0,0.11 0.36,0.36 0 0 1 0,0.11 c 0,0.15 0,0.31 0,0.46 a 6.27,6.27 0 0 0 0,1.06 2.7,2.7 0 0 0 0.08,0.41 c 0,0.09 0.07,0.1 0.15,0 a 0.65,0.65 0 0 0 0.13,-0.16 c 0.1,-0.19 0.19,-0.39 0.29,-0.59 a 0.19,0.19 0 0 0 0,-0.08 c 0,-0.27 0,-0.53 0,-0.8 a 1.55,1.55 0 0 1 0,-0.31 0.82,0.82 0 0 1 0.09,-0.19 c 0,0 0,-0.05 0.08,-0.07 v 0 c 0.05,0 0,0 0.06,0 0.06,0 0,0 0.06,0 a 0.41,0.41 0 0 1 0.11,0.29 3.57,3.57 0 0 1 0.21,0.82 z M 34.69,13.5 v 0 0.39 0 z m 0.09,0.91 v -0.2 0 z m 0,-1 c 0,-0.14 0,-0.28 0,-0.43 v 0 z m 0.06,1 a 1.55,1.55 0 0 0 0,-0.21 v 0 z m 0.09,0.4 -0.06,-0.11 v 0 0.1 z m -0.06,-0.56 v 0.23 0 -0.22 z M 35,12.94 v 0 c 0,0.3 0,0.59 -0.07,0.89 v 0 C 35,13.53 35,13.24 35,12.94 Z m 0.81,0.14 z m 0.1,1.71 v 0 a 2,2 0 0 1 0,-0.24 v 0 z M 36,15 v -0.16 0 z m 0,-0.24 v -0.17 0 a 1,1 0 0 0 0,0.18 z M 36,14 v 0 -1 0 z"
         id="path1678" />
      <path
         class="cls-2"
         d="m 38.46,13 c 0,0.67 0,1.34 0,2 a 3.32,3.32 0 0 1 -0.11,0.83 0.87,0.87 0 0 1 -0.31,0.47 0.8,0.8 0 0 1 -0.7,0.15 1.73,1.73 0 0 1 -0.67,-0.32 0.61,0.61 0 0 1 -0.21,-0.33 0.14,0.14 0 0 1 0,-0.15 l 0.09,0.19 v 0 a 0.94,0.94 0 0 1 -0.06,-0.15 c 0,-0.07 0,-0.07 0.05,-0.07 v 0 0 -0.06 0 l 0.06,0.07 a 0.41,0.41 0 0 0 0.2,0.25 1.79,1.79 0 0 0 0.45,0.19 0.49,0.49 0 0 0 0.49,-0.19 0.63,0.63 0 0 0 0.15,-0.39 c 0,-0.18 0,-0.36 0,-0.54 0,-0.18 0,-0.49 0,-0.74 v 0 0.06 l -0.28,0.39 a 0.77,0.77 0 0 1 -0.47,0.3 0.48,0.48 0 0 1 -0.53,-0.21 1.36,1.36 0 0 1 -0.22,-0.65 1.81,1.81 0 0 1 0.11,-0.8 1.41,1.41 0 0 1 0.38,-0.53 0.73,0.73 0 0 1 0.62,-0.15 0.75,0.75 0 0 1 0.41,0.26 v 0 -0.14 a 0.58,0.58 0 0 1 0.12,-0.29 0.24,0.24 0 0 1 0.1,-0.1 h 0.09 c 0,0 0,0 0,0 0,0 0,0.11 0,0.17 0,0.06 0,0.06 0,0.09 v 0 a 1.9,1.9 0 0 0 0,0.25 v 1.37 0 c 0,-0.33 0,-0.67 0,-1 0,-0.33 0,-0.53 0,-0.8 0,0 0,-0.07 0,-0.11 v 0 0 0 c 0,0 0,0 0,0.06 0,0.06 0.24,0.45 0.24,0.62 z m -2,0.86 v 0 0.14 0 z m 0.07,0.41 c 0,0 0,-0.08 0,-0.12 v 0 c 0,0 0,0.07 0,0.11 z m 0.14,0.3 v 0 L 36.6,14.44 v 0 a 0.75,0.75 0 0 0 0.09,0.11 z m 0,-1 v 0 -0.12 0 c 0,0 0,0.07 -0.01,0.11 z m 0,0.43 v -0.2 a 0.23,0.23 0 0 0 0.01,0.2 z m 0.07,0.7 v -0.08 0 z m 0,-1.36 v 0 l 0.06,-0.12 v 0 z m 0,0.77 v 0 0.12 0 A 0.5,0.5 0 0 0 36.71,14.1 Z m 0.08,-0.58 v 0 0.14 0 a 0.65,0.65 0 0 0 -0.03,-0.15 z m 0.05,-0.45 v 0 l -0.06,0.08 v 0 z M 37,16.14 36.85,16.05 v 0 z m 0.89,-2.7 a 1.3,1.3 0 0 0 -0.1,-0.15 0.65,0.65 0 0 0 -0.31,-0.23 0.15,0.15 0 0 0 -0.17,0 1.22,1.22 0 0 0 -0.17,0.15 1.19,1.19 0 0 0 -0.26,0.91 0.89,0.89 0 0 0 0.12,0.39 0.08,0.08 0 0 0 0.12,0.05 0.36,0.36 0 0 0 0.15,-0.08 1.45,1.45 0 0 0 0.21,-0.22 l 0.41,-0.52 a 0.73,0.73 0 0 0 -0.02,-0.3 z m -1,-0.28 v 0 l 0.06,-0.07 v 0 z m 0,-0.23 v 0 l 0.07,-0.07 v 0 z M 37,13 v 0.07 0 z m 0.07,-0.07 0.09,-0.05 c 0,0 -0.09,-0.06 -0.16,0 z m 0,3.29 0.19,0.07 v 0 l -0.19,-0.06 z m 0.11,-3.36 h -0.06 v 0 0 h 0.08 z m 0,-0.06 c 0,0 0.09,0.05 0.14,0 0.05,-0.05 -0.09,-0.1 -0.13,-0.05 z m 0.17,3.55 h -0.14 v 0 z m 0.12,-1.78 -0.09,0.09 v 0 c 0,0 0.09,-0.09 0.1,-0.14 z m 0.26,-0.32 v 0 l -0.24,0.31 v 0 z M 38,16 v 0 l -0.08,0.13 C 38,16.08 38,16.07 38,16 Z m 0.09,-0.71 v 0 0.12 0 c 0,0 -0.02,-0.1 -0.02,-0.14 z m 0.18,0.31 v 0 l -0.06,0.23 c 0.03,-0.08 0.02,-0.17 0.04,-0.25 z m 0,-0.54 v 0.44 0 A 0.94,0.94 0 0 0 38.24,15 Z m 0.09,0.2 v 0 0.24 0 a 1.94,1.94 0 0 1 -0.03,-0.26 z"
         id="path1680" />
      <path
         class="cls-2"
         d="m 39,15.08 v 0 a 0.22,0.22 0 0 1 -0.13,-0.17 c 0,-0.13 -0.05,-0.26 -0.07,-0.39 -0.02,-0.13 -0.07,-0.46 -0.1,-0.69 -0.03,-0.23 0,-0.4 0,-0.6 0,-0.2 0,-0.6 0,-0.9 a 6.83,6.83 0 0 1 0.06,-0.78 0.61,0.61 0 0 1 0.11,-0.29 0.27,0.27 0 0 1 0.08,-0.07 h 0.06 0.1 c 0.12,0.09 0.11,0.22 0.12,0.34 a 9.29,9.29 0 0 1 0,1.18 c 0,0.38 0,0.76 0,1.13 V 14 a 2,2 0 0 1 0.11,-0.21 2.77,2.77 0 0 1 0.47,-0.65 1.3,1.3 0 0 1 0.18,-0.15 0.34,0.34 0 0 1 0.26,0 0.39,0.39 0 0 1 0.34,0.31 2.13,2.13 0 0 1 0.09,0.71 1.76,1.76 0 0 0 0.16,0.86 0.1,0.1 0 0 1 0,0.1 0.27,0.27 0 0 1 -0.32,0 0.76,0.76 0 0 1 -0.21,-0.38 c 0,-0.23 -0.08,-0.47 -0.11,-0.71 -0.03,-0.24 0,-0.21 0,-0.32 v 0 a 0.68,0.68 0 0 0 -0.12,0.12 2.41,2.41 0 0 0 -0.56,1.13 c 0,0.1 -0.05,0.2 -0.08,0.3 -0.03,0.1 0,0.06 0,0.06 0,0 -0.07,0.06 -0.12,0 v 0 -0.06 0 0 0 0 -0.18 0 z m -0.26,-2.42 v 0 -0.93 0 z m 0.21,2.21 v 0 c 0,-0.07 0,-0.15 0,-0.23 v 0 z m 0,-0.9 v 0 0.26 0 A 2.46,2.46 0 0 0 38.93,14 Z m 0,-2.53 v 0 c 0,0.55 0,1.09 0,1.63 z m 0,3.08 v 0 a 1.94,1.94 0 0 1 0,-0.24 v 0 A 1.94,1.94 0 0 1 39,14.52 Z M 39,14.33 v 0 A 2.83,2.83 0 0 0 39,14 v 0 a 2.83,2.83 0 0 1 0,0.33 z m 0.2,0 v 0 l 0.06,-0.19 v 0 a 1.07,1.07 0 0 1 -0.04,0.2 z m 0.12,-0.07 v 0 l -0.06,0.24 v 0 z m 0,-0.37 v 0 l 0.1,-0.19 v 0 c 0.01,0.08 -0.03,0.14 -0.06,0.2 z m 0.23,-0.42 v 0 l 0.1,-0.13 v 0 a 1.34,1.34 0 0 1 -0.06,0.14 z m 0.07,0 v 0 l 0.13,-0.15 v 0 z m 0.54,0.13 v 0 c 0,-0.05 0,-0.1 0,-0.15 v 0 z m 0.1,0.82 v 0 c 0,-0.1 0,-0.2 -0.05,-0.3 v 0 c 0.06,0.12 0.07,0.22 0.09,0.33 z m 0,-1 v 0 c 0,0.08 0,0.17 0,0.25 v 0 a 2.11,2.11 0 0 0 0.05,-0.18 z m 0,0.64 v 0 l 0.06,0.33 v 0 z m 0,-0.37 a 0.58,0.58 0 0 0 0,-0.32 v 0 c 0.12,0.18 0.14,0.28 0.15,0.39 z m 0.08,0.76 v 0 c 0,-0.13 0,-0.25 0,-0.38 a 1.34,1.34 0 0 0 0,0.28 0.38,0.38 0 0 0 0.15,0.17 z"
         id="path1682" />
      <path
         class="cls-2"
         d="m 41.93,12.78 c 0,0 0,0 -0.08,0 l -0.39,0.11 c 0,0 -0.05,0 -0.05,0.06 0,0.41 0,0.83 0,1.24 a 3.24,3.24 0 0 0 0.05,0.62 0.61,0.61 0 0 1 0,0.13 c 0,0 0,0 0,0.07 v 0 0 0 0 c 0,0 0,0 0,-0.05 a 1,1 0 0 1 0,-0.14 c 0,0 0,0.13 0,0.21 v 0 c 0,0 -0.06,0 -0.1,0 a 0.41,0.41 0 0 1 -0.1,-0.13 2.34,2.34 0 0 1 -0.09,-0.24 c 0,-0.16 -0.11,-0.31 -0.15,-0.47 A 2.89,2.89 0 0 1 40.95,13.7 c 0,-0.27 0,-0.53 0,-0.8 0,0 0,0 0,0 a 0.62,0.62 0 0 1 -0.3,-0.12 l -0.09,-0.12 v 0 0 c 0,0 0,0 0,0 h 0.06 a 1.06,1.06 0 0 0 0.35,0.09 v 0 L 40.83,12.7 h -0.19 v 0 h -0.05 0.05 c 0,0 0,0 0.08,0 h 0.26 v 0 c 0,-0.25 0,-0.5 0,-0.74 a 0.45,0.45 0 0 1 0,-0.2 0.53,0.53 0 0 1 0.08,-0.17 0.31,0.31 0 0 1 0.09,-0.07 v 0 c 0,0 0,0 0.05,0 v 0 0 0 0 a 0.41,0.41 0 0 1 0.15,0.35 c 0,0.25 0,0.5 0,0.74 v 0.18 c 0,0 0,0.05 0,0.05 h 0.3 0.15 v 0 0 l -0.36,0.06 v 0 l 0.36,-0.05 v 0 0 h -0.17 0.22 v 0 a 0.07,0.07 0 0 1 0.08,-0.07 z M 40.64,12.7 h -0.2 v 0 l 0.21,0.07 z m 0.17,0 c 0,0 -0.06,0 -0.09,0 h 0.08 z m 0.16,-1 v 0 0.8 0 C 41,12.23 41,12 41,11.7 Z m 0.12,2.58 v -0.26 0 z m 0,-2.92 v 0 0.11 0 z m 0.1,3.05 L 41.15,14 v 0 c 0,0.14 0,0.29 0.07,0.43 z m 0,-1 v 0 -0.41 0 z m 0,-2 v 0 a 0.76,0.76 0 0 0 0,0.11 c 0.03,-0.02 0.03,-0.03 -0.01,-0.05 z m 0,1.08 v -0.88 0 z m 0,-1.1 c 0,0 0,-0.06 0,-0.08 0,-0.02 0,-0.06 0,-0.06 0,0 -0.02,0.19 0.02,0.2 z m 0.1,3.21 c 0,-0.21 -0.05,-0.41 -0.08,-0.63 a 3.29,3.29 0 0 0 0.1,0.69 z m 0,0.24 a 0.75,0.75 0 0 0 0,0.16 v 0 c 0.05,0 0.05,0 0,-0.1 z m 0.17,-2.17 h 0.22 v 0 z m 0.27,0 v 0 H 41.5 v 0 z m 0.22,-0.06 -0.18,0.05 A 0.37,0.37 0 0 0 42,12.69 Z"
         id="path1684" />
      <path
         class="cls-2"
         d="m 43.94,15 a 3.62,3.62 0 0 1 -0.15,0.93 0.72,0.72 0 0 1 -0.23,0.36 0.8,0.8 0 0 1 -0.64,0.14 2.09,2.09 0 0 1 -0.55,-0.18 0.46,0.46 0 0 1 -0.23,-0.2 0.32,0.32 0 0 1 0,-0.14 c 0,0 0,0 0,-0.07 0,-0.07 0.06,0.12 0.13,0.15 v 0 0 a 0.76,0.76 0 0 1 -0.08,-0.11 c 0,0 0,-0.06 0,0 v 0 c 0,0 0,0 0,0.05 v 0 0 0 l 0.07,0.09 v 0 a 1.08,1.08 0 0 0 0.53,0.15 0.38,0.38 0 0 0 0.43,-0.26 1.76,1.76 0 0 0 0.07,-0.4 5.29,5.29 0 0 0 0,-0.89 c 0,-0.09 0,-0.17 0,-0.26 v 0 c -0.09,0.16 -0.18,0.32 -0.28,0.48 a 0.87,0.87 0 0 1 -0.17,0.22 0.39,0.39 0 0 1 -0.47,0 0.93,0.93 0 0 1 -0.26,-0.33 2.54,2.54 0 0 1 -0.19,-0.61 3,3 0 0 1 0,-0.79 3.32,3.32 0 0 1 0.06,-0.44 0.7,0.7 0 0 1 0.11,-0.23 c 0,0 0.06,-0.06 0.1,-0.09 h 0.06 c 0.08,0 0.05,0 0.05,0.05 v 0 0 c -0.05,0 0,0.1 -0.05,0.15 -0.05,0.05 0.06,-0.08 0.05,-0.16 -0.01,-0.08 0,0 0,-0.06 v 0 c 0,0 0,0 0,0 v 0 0 a 0.23,0.23 0 0 1 0.07,0.23 c 0,0.26 0,0.51 0,0.76 a 3.08,3.08 0 0 0 0.11,1 l 0.09,0.21 c 0,0.05 0,0.06 0.1,0 a 0.93,0.93 0 0 0 0.15,-0.13 c 0.06,-0.07 0.1,-0.16 0.15,-0.23 l 0.29,-0.48 a 0.3,0.3 0 0 0 0,-0.15 c 0,-0.16 0,-0.32 0,-0.49 a 0.47,0.47 0 0 1 0.1,-0.32 c 0,0 0.06,-0.06 0.09,-0.09 v 0 c 0.08,0 0.05,0 0.06,0.06 0.01,0.06 0,0.06 0,0.1 a 0.48,0.48 0 0 1 0,-0.12 v 0 c 0,0 0,0 0,0 v 0 c 0.07,0 0.07,0.09 0.08,0.15 0.01,0.06 0,0.32 0.05,0.48 0.36,0.59 0.36,1.05 0.3,1.47 z m -1.86,-1.7 v 0 0.29 0 z m 0.1,0.94 c 0,-0.1 0,-0.19 0,-0.29 v 0 c 0,0.09 0,0.18 0,0.28 z m 0.08,1.82 c 0,0 -0.09,-0.06 -0.12,-0.11 -0.03,-0.05 0,0 0,0 l 0.1,0.08 z m 0,-1.81 -0.06,-0.38 v 0 z m 0,-0.65 v -0.59 a 1.46,1.46 0 0 0 0.01,0.59 z m 0,0.27 c 0,0.14 0,0.28 0.05,0.42 v 0 l -0.06,-0.41 z m 0.12,0.91 -0.09,-0.16 v 0 c 0,0 0,0.1 0.08,0.16 z M 42.3,13.32 v 0 -0.48 0 c 0.07,0.16 0.06,0.33 0.04,0.48 z m 0.18,2.84 0.25,0.09 v 0 l -0.26,-0.08 z m 0.38,0.15 h -0.21 v 0 z m 0.14,0 h -0.11 v 0 z m 0.5,-3 v 0 0.26 0 z m 0,1.75 c 0,0.08 0,0.17 0,0.26 v 0 z m 0.16,0.61 v 0 l -0.08,0.25 c 0.12,-0.06 0.11,-0.15 0.14,-0.23 z m 0,-0.95 c 0,0.18 0,0.49 0,0.81 a 3,3 0 0 0 0.08,-0.79 z m 0.08,0.41 v 0 c 0,0.12 0,0.25 0,0.37 v 0 z"
         id="path1686" />
      <path
         class="cls-2"
         d="m 33.89,29 0.09,-0.15 a 0.36,0.36 0 0 1 0.07,-0.1 c 0,0 0,0 0,0 v 0 L 33.91,29 v 0 l 0.08,-0.13 v -0.06 c 0,0 0,0 0,0 v 0 0 h 0.07 v 0.06 0 0 c 0,0 0,0.06 0,0.07 v 0 a 5.48,5.48 0 0 0 -0.42,1 12.33,12.33 0 0 0 -0.37,1.45 c 0,0.25 -0.12,0.51 -0.18,0.76 0,0 0,0.07 0,0.11 a 0.35,0.35 0 0 1 -0.32,0.24 0.29,0.29 0 0 1 -0.2,-0.05 0.88,0.88 0 0 1 -0.36,-0.33 2.4,2.4 0 0 1 -0.39,-0.93 c 0,0 0,0 0,0 l -0.16,0.32 a 3.26,3.26 0 0 0 -0.18,0.63 c 0,0.1 -0.05,0.21 -0.08,0.32 a 0.1,0.1 0 0 1 -0.11,0.1 H 31.2 a 0.25,0.25 0 0 1 -0.24,0 1,1 0 0 1 -0.3,-0.34 5.76,5.76 0 0 1 -0.66,-1.55 6,6 0 0 1 -0.18,-1.4 1.77,1.77 0 0 1 0,-0.23 0.74,0.74 0 0 1 0.12,-0.29 v 0 c 0,0 0,0 0,0 0,0 0.06,0 0.09,0 0.03,0 0,0 0.06,0 a 0.12,0.12 0 0 1 0,0.07 v 0 0 0 0 a 0.52,0.52 0 0 1 0.14,0.31 l 0.12,0.69 a 8.92,8.92 0 0 0 0.36,1.61 c 0.07,0.21 0.15,0.42 0.23,0.63 v 0 c 0,0 0,0 0,0 a 6.39,6.39 0 0 1 0.57,-1.14 0.27,0.27 0 0 0 0.06,-0.12 0.03,0 -180 0 0 0.06,0 c 0,0 0,-0.07 0.07,-0.05 0.07,0.02 0.06,0 0.09,0 v 0 a 0.51,0.51 0 0 1 0.18,0.26 l 0.3,0.84 c 0.05,0.14 0.11,0.28 0.16,0.41 a 0.86,0.86 0 0 0 0.07,0.1 v 0 a 0.53,0.53 0 0 0 0.06,-0.1 c 0,-0.15 0.09,-0.29 0.12,-0.44 0.1,-0.44 0.18,-0.89 0.28,-1.32 a 7,7 0 0 1 0.47,-1.4 1.37,1.37 0 0 1 0.13,-0.2 0.18,0.18 0 0 1 0.08,-0.07 0.17,0.17 0 0 1 0.1,0 v 0 a 2.39,2.39 0 0 0 -0.13,0.21 c 0,0 0,0 0,0 a 0.29,0.29 0 0 0 -0.08,0.14 v 0 z m -3.9,0.07 v 0 0.18 0 C 30,29.2 30,29.14 30,29.08 Z m 0.17,1.38 c 0,-0.25 -0.07,-0.51 -0.11,-0.76 a 2.79,2.79 0 0 0 0.11,0.77 z M 30.1,28.93 v 0 c 0,0 0,-0.07 0,-0.11 v 0 z m 0,0.32 a 6.33,6.33 0 0 0 0.17,1.06 C 30.25,30 30.2,29.61 30.14,29.26 Z m 0.05,-0.4 c 0,0 0,0.06 0,0.06 0,0 0,0 0,0 0,0 0,-0.05 0,0 0,0.05 0,0 0,-0.05 0,-0.05 0,0 0,-0.06 z m 0.26,1.59 a 2.74,2.74 0 0 1 -0.05,-0.28 c 0,-0.38 -0.11,-0.77 -0.16,-1.16 0,0 0,-0.05 0,-0.05 a 11.3,11.3 0 0 0 0.25,1.5 z m 0,1.23 v 0 L 30.28,31.3 v 0 z m 0.33,0.39 v 0 l -0.35,-0.8 a 2.84,2.84 0 0 0 0.41,0.81 z m -0.31,-1.15 a 2.69,2.69 0 0 0 0.22,0.62 c -0.01,-0.19 -0.09,-0.4 -0.16,-0.61 z M 31,32.38 v 0 a 0.52,0.52 0 0 0 -0.1,-0.11 v 0 c 0,0 -0.02,0.09 0.1,0.11 z m 0,-0.08 -0.08,-0.07 c 0,0 0.08,0.07 0.08,0.07 z m 0,-0.22 v 0 -0.15 0 z m 0.21,0.15 v 0 l 0.12,-0.39 v 0 z m 0.05,0.06 v 0 l 0.15,-0.54 v 0 c 0,0.18 -0.06,0.36 -0.11,0.54 z m 0.42,-1.22 v 0 l -0.17,0.33 v 0 c 0.1,-0.11 0.15,-0.22 0.21,-0.33 z M 32.26,31.71 32,30.87 a 4.9,4.9 0 0 0 0.3,0.84 z M 32,31.63 v 0 l 0.06,0.16 v 0 z m 0.09,0 a 1,1 0 0 0 0.19,0.42 C 32.26,31.87 32.2,31.73 32.13,31.59 Z m 0.31,0.72 v 0 a 1.71,1.71 0 0 1 -0.11,-0.14 v 0 z m 0.07,-0.05 v 0 l -0.09,-0.12 v 0 z m 0.07,0.13 v 0 l -0.07,-0.06 v 0 z M 33.1,31.9 v 0 c 0,0.1 -0.06,0.2 -0.08,0.3 v 0 c 0.07,-0.14 0.09,-0.2 0.12,-0.34 z m 0.48,-2 a 5.69,5.69 0 0 0 -0.25,0.87 c 0.12,-0.3 0.21,-0.6 0.29,-0.89 z m 0,-0.16 v 0 c 0,0.14 -0.08,0.27 -0.13,0.4 v 0 c 0.08,-0.14 0.12,-0.29 0.16,-0.42 z"
         id="path1688" />
      <path
         class="cls-2"
         d="m 35.79,32.61 c -0.09,0.09 -0.18,0 -0.26,-0.14 a 0.93,0.93 0 0 1 -0.1,-0.26 c 0,-0.13 0,-0.27 -0.07,-0.4 -0.07,-0.13 0,0 0,-0.09 v 0.06 l -0.37,0.55 a 0.57,0.57 0 0 1 -0.32,0.2 0.44,0.44 0 0 1 -0.4,-0.09 0.94,0.94 0 0 1 -0.29,-0.42 1.5,1.5 0 0 1 -0.06,-0.91 1.25,1.25 0 0 1 0.51,-0.71 0.67,0.67 0 0 1 0.89,0.18 v 0 0 c 0,0 0,-0.06 0,-0.09 a 0.67,0.67 0 0 1 0.1,-0.34 0.3,0.3 0 0 1 0.08,-0.08 0.06,0.06 0 0 1 0.07,0 c 0,0 0,0 0,0.05 v 0 0.06 c 0,0 0,0 0.05,0 a 1.52,1.52 0 0 1 0,0.21 c 0,0.22 0,0.44 0,0.67 a 8.22,8.22 0 0 0 0,1.11 c 0.16,0.2 0.23,0.39 0.17,0.44 z M 34,31.4 v 0 0.15 0 z m 0.07,0.4 v -0.12 0 z m 0.08,-0.14 a 0.65,0.65 0 0 0 0,0.13 v 0 a 0.5,0.5 0 0 0 0,-0.13 z M 34.23,32.07 34.15,32 c 0,0 0.01,0.05 0.06,0.07 z m -0.05,-0.86 v 0 c 0,0 0,-0.07 0,-0.11 v 0 z m 0,0.36 v 0 -0.19 a 0.21,0.21 0 0 0 0.01,0.19 z m 0.08,0.66 -0.08,-0.09 v 0 c 0.02,0.07 0.03,0.08 0.09,0.09 z M 34.19,31 v 0 l 0.06,-0.12 v 0 A 0.13,0.13 0 0 0 34.19,31 Z m 0,0.65 c 0,0 0,0.08 0,0.12 v 0 z m 0,-0.84 v 0 l 0.06,-0.09 v 0 z m 0,0.46 v -0.12 0 z m 0.08,1 h -0.06 c 0,0 0.1,0 0.15,-0.02 z m 0,-1.39 v 0 l 0.06,-0.07 v 0 z m 0,-0.23 v 0 a 0.6,0.6 0 0 1 0.08,-0.08 v 0 z m 0.08,1.71 h -0.06 v 0 c 0,0 0.08,0.01 0.13,-0.02 z m 0.86,-1.09 A 1.09,1.09 0 0 0 35.02,30.94 L 35,30.85 c -0.1,-0.06 -0.2,-0.1 -0.3,0 A 1,1 0 0 0 34.48,32 c 0,0.08 0.07,0.09 0.15,0 a 1.21,1.21 0 0 0 0.16,-0.16 c 0.16,-0.2 0.32,-0.41 0.49,-0.61 0,0.06 0.01,0.03 0,0.02 z m -0.87,-0.5 0.07,-0.07 c 0,0 0.01,-0.01 0,0.05 z m 0.09,-0.17 v 0 l 0.08,-0.05 v 0 c 0,0 0.01,0 -0.01,0.03 z m 0.14,0 H 34.5 v 0 z m 0,-0.07 v 0 c 0,0 0,0 0.07,0 v 0 z M 35,31.92 v 0 l -0.17,0.21 v 0 z M 34.89,30.59 H 35 v 0 h -0.07 z m 0.53,0.1 v 0 a 0.57,0.57 0 0 1 0,0.13 v 0 z m 0.14,0.84 c 0,-0.39 0,-0.77 0,-1.15 v 0 0.77 0.35 z m 0,-1.19 v 0 c 0,-0.05 0,-0.1 0,-0.15 v 0 z m 0.06,1.82 v -0.21 0 a 1.49,1.49 0 0 1 0,0.21 z m 0,-1.58 v 0 0.31 0 z"
         id="path1690" />
      <path
         class="cls-2"
         d="m 37.59,30.37 v 0.05 0 l -0.44,0.2 a 1.13,1.13 0 0 0 -0.57,0.57 c 0,0.11 -0.08,0.23 -0.11,0.34 a 0.17,0.17 0 0 0 0,0.07 v 0.82 a 0.9,0.9 0 0 1 0,0.16 c 0,0 0,0 0,0 v 0 -0.17 c 0,-0.11 0,-0.21 0,-0.32 v 0 l 0.05,0.54 a 0.71,0.71 0 0 1 -0.06,-0.24 v 0 a 0.14,0.14 0 0 0 0,0.06 c 0,0 0,0.11 0,0.17 0,0.06 0,0 0,0 v 0 0 a 0.25,0.25 0 0 1 -0.11,-0.16 c 0,-0.12 -0.06,-0.25 -0.08,-0.37 A 6.79,6.79 0 0 1 36,30.9 a 4.21,4.21 0 0 1 0,-0.5 0.82,0.82 0 0 1 0.09,-0.19 c 0,0 0,0 0,0 v 0 c 0,0 0,0 0.08,0 v 0 c 0,0 0,0 0,0 0,0 0,0.12 0,0.18 0,0.06 0,0 0,0 v 0 a 0.57,0.57 0 0 1 0,-0.13 0.11,0.11 0 0 1 0,-0.08 0.15,0.15 0 0 1 0,0.07 v 0 a 0.1,0.1 0 0 1 0.07,0.08 1.84,1.84 0 0 1 0,0.41 v 0.13 l 0.12,-0.15 a 1.06,1.06 0 0 1 0.45,-0.29 l 0.36,-0.13 a 0.32,0.32 0 0 1 0.19,0 H 37.2 v 0 a 0.45,0.45 0 0 1 0.11,0 c 0,0 0,0 0.05,0 v 0 l -0.14,0.05 v 0 L 37.4,30.3 v 0 l -0.18,0.06 v 0 z m -1.51,0.21 v 0 c 0,0.21 0,0.42 0,0.63 v 0 z m 0.11,1.77 v -0.18 0 z m 0.08,0 v -0.17 0 0.18 z m 0,-1.9 v 0 0.87 c 0,-0.21 0,-0.42 0,-0.63 0,-0.21 0.01,-0.19 0.01,-0.27 z m 0.46,0.32 v 0 l -0.09,0.07 z m 0.13,-0.13 v 0 l -0.15,0.09 v 0 z m 0.5,-0.25 v 0 a 3.34,3.34 0 0 0 -0.44,0.17 v 0 z m 0,0.06 v 0 l -0.17,0.07 v 0 z"
         id="path1692" />
      <path
         class="cls-2"
         d="m 39.26,31.23 c 0,0.39 0,0.77 0,1.16 a 1.22,1.22 0 0 1 0,0.17 c 0,0 0,0 0,0 0,0 0,-0.08 0,-0.11 a 2.11,2.11 0 0 0 0,-0.35 c 0,0.17 0,0.34 0,0.5 v 0 c 0,0 0,0 0,-0.05 v -0.17 a 0.43,0.43 0 0 0 0,-0.05 0.37,0.37 0 0 0 0,0.25 c 0,0 0,0 0,0 v 0 A 0.21,0.21 0 0 1 39.1,32.4 c 0,-0.13 0,-0.25 -0.08,-0.38 a 0.5,0.5 0 0 0 0,-0.12 v 0 c -0.08,0.16 -0.16,0.32 -0.25,0.48 a 0.43,0.43 0 0 1 -0.3,0.2 0.26,0.26 0 0 1 -0.21,-0.06 0.63,0.63 0 0 1 -0.22,-0.29 2.2,2.2 0 0 1 -0.16,-0.61 3.47,3.47 0 0 1 0.07,-1.2 0.82,0.82 0 0 1 0.1,-0.24 0.27,0.27 0 0 1 0.1,-0.08 v 0 c 0,0 0,0 0,0 v 0 l -0.09,1.05 c 0,0.1 0,0.2 0,0.3 v 0 c 0,-0.08 0,-0.15 0,-0.23 0,-0.27 0,-0.54 0.06,-0.82 a 0.88,0.88 0 0 0 0,-0.16 c 0,-0.05 0,-0.09 0,-0.14 v 0 a 0.17,0.17 0 0 0 0,0.05 v 0 0 a 0.54,0.54 0 0 1 0,0.11 0.36,0.36 0 0 1 0,0.11 c 0,0.15 0,0.31 0,0.46 a 6.27,6.27 0 0 0 0,1.06 2.7,2.7 0 0 0 0.08,0.41 c 0,0.09 0.07,0.1 0.15,0 a 0.51,0.51 0 0 0 0.13,-0.16 c 0.1,-0.19 0.19,-0.39 0.29,-0.59 a 0.19,0.19 0 0 0 0,-0.08 c 0,-0.26 0,-0.53 0,-0.8 a 1.65,1.65 0 0 1 0,-0.31 0.82,0.82 0 0 1 0.09,-0.19 c 0,0 0.05,0 0.08,-0.07 v 0 c 0,0 0,0 0.06,0 0.06,0 0,-0.05 0.06,0 a 0.37,0.37 0 0 1 0.11,0.28 3.57,3.57 0 0 1 0.09,0.85 z M 37.72,31 v 0 0.39 0 z m 0.09,0.91 v -0.2 0 z m 0,-1 c 0,-0.15 0,-0.29 0,-0.43 v 0 z m 0.06,1 a 1.55,1.55 0 0 0 0,-0.21 v 0 z m 0.09,0.4 -0.06,-0.11 v 0 0.11 z M 37.9,31.75 38,32 v 0 -0.22 z m 0.13,-1.3 v 0 c 0,0.29 0,0.58 -0.07,0.88 v 0 C 38,31.08 38,30.78 38.06,30.49 Z m 0.81,0.13 z m 0.1,1.71 v 0 a 2,2 0 0 1 0,-0.24 v 0 z m 0.05,0.22 v -0.16 0 z m 0,-0.24 v -0.17 0 a 1,1 0 0 0 0.08,0.21 z m 0,-0.73 v 0 -1 0 z"
         id="path1694" />
      <path
         class="cls-2"
         d="m 41.47,31.32 a 5.88,5.88 0 0 0 0,1 c 0,0 0,0 0,0.05 0,0.05 0,0 0,0 0,0 0,0 0,0.08 v 0 0 a 0.9,0.9 0 0 1 0,-0.16 1.87,1.87 0 0 1 0,-0.25 v 0 0 0.35 c 0,0 0,0 0,0 v 0 a 0.84,0.84 0 0 1 -0.05,-0.17 c 0,-0.1 0,-0.2 0,-0.3 v 0 a 0.56,0.56 0 0 0 0,0.12 c 0,0 0,0 0,0.07 v 0 a 1.89,1.89 0 0 0 0,0.23 c 0,0 0,0 0,0.06 h -0.06 c 0,0 0,0 0,0 a 0.74,0.74 0 0 1 -0.23,-0.55 c 0,-0.28 0,-0.56 -0.06,-0.85 a 2.64,2.64 0 0 1 0,-0.28 c 0,0 0,-0.05 0,-0.07 v 0 a 1.93,1.93 0 0 0 -0.35,0.51 5.77,5.77 0 0 0 -0.31,0.82 l -0.12,0.34 v 0 c 0,0 0,0 -0.08,0 v 0 0 0 0 c 0,0 0,-0.07 0,-0.11 a 0.5,0.5 0 0 1 0,-0.12 v 0 c 0,0 0,0 0,0 0,0 0,0.11 0,0.16 0,0.05 0,0 0,0 v 0 a 0.6,0.6 0 0 1 -0.2,-0.44 c 0,-0.31 -0.07,-0.62 -0.11,-0.92 0,-0.14 0,-0.27 0,-0.41 0,-0.14 0,-0.27 0,-0.4 a 0.53,0.53 0 0 1 0.12,-0.22 c 0,0 0.07,0 0.11,-0.08 0.04,-0.08 0.05,0 0.07,0 h 0.06 a 0.43,0.43 0 0 0 0,0.05 0.25,0.25 0 0 1 0,0.08 v -0.1 c 0,0 0,0 0,0 v 0 c 0,0 0,0 0,0.08 v 0.31 c 0.11,0.05 0.11,0.15 0.12,0.24 a 3.42,3.42 0 0 1 0,0.64 c 0,0.21 0,0.43 0,0.65 v 0.13 0 a 0.49,0.49 0 0 0 0,-0.11 4,4 0 0 1 0.35,-0.8 1.49,1.49 0 0 1 0.31,-0.4 l 0.14,-0.11 a 0.26,0.26 0 0 1 0.24,0 0.36,0.36 0 0 1 0.29,0.26 1.65,1.65 0 0 1 -0.24,0.62 z m -1.9,-0.75 a 1.48,1.48 0 0 0 0,0.36 v 0 z m 0,-0.31 v 0 a 0.5,0.5 0 0 1 0,0.12 v 0 a 0.49,0.49 0 0 1 0.03,-0.12 z m 0.14,2.07 v -0.15 a 0.77,0.77 0 0 0 0,-0.15 v 0 c 0,0.09 0,0.19 0,0.29 z m 0,-1.9 v 0 -0.11 0 z m 0.14,1.9 c 0,-0.12 -0.05,-0.24 -0.07,-0.36 v 0 a 3,3 0 0 1 0,0.43 0.44,0.44 0 0 0 0,0.1 0.27,0.27 0 0 0 0.07,-0.17 z m -0.06,-1.49 c 0,0.16 0,0.31 0,0.47 0,-0.24 0,-0.48 0,-0.72 v 0 a 0.14,0.14 0 0 0 0,-0.06 c 0,0 -0.05,0 -0.05,0.05 z m 0,-0.41 v 0 c 0,0 0,0 0,-0.05 0,-0.05 0,0 0,-0.06 a 0.09,0.09 0 0 0 0,-0.05 v 0 z m 0.12,1.91 V 32 32 c 0,0.11 0,0.22 0,0.34 z m 0,-2 a 0.11,0.11 0 0 0 0,0.12 z m 1.06,0.52 v 0 0.51 0 z m 0.06,1.28 v 0.15 0 c 0,-0.05 0,-0.1 0,-0.15 z m 0.08,0.39 v -0.17 0 a 1,1 0 0 0 0,0.17 z M 41.21,31 a 7.85,7.85 0 0 0 0,0.84 4.71,4.71 0 0 0 0,-0.84 z m 0,-0.25 v 0 c 0,0.06 0,0.11 0,0.17 0,0.06 0.07,-0.11 0.01,-0.16 z m 0.1,0.49 v 0 0.23 0 z"
         id="path1696" />
      <path
         class="cls-2"
         d="m 43.68,30.52 c 0,0.67 0,1.34 0,2 a 2.89,2.89 0 0 1 -0.11,0.82 0.87,0.87 0 0 1 -0.3,0.47 0.8,0.8 0 0 1 -0.71,0.15 1.63,1.63 0 0 1 -0.66,-0.32 0.54,0.54 0 0 1 -0.22,-0.33 0.16,0.16 0 0 1 0,-0.15 l 0.09,0.19 v 0 A 0.94,0.94 0 0 1 41.71,33.2 c 0,-0.07 0,-0.07 0.05,-0.07 v 0 0 a 0.13,0.13 0 0 0 0,-0.06 v 0 l 0.06,0.07 a 0.39,0.39 0 0 0 0.2,0.25 1.79,1.79 0 0 0 0.45,0.19 0.46,0.46 0 0 0 0.49,-0.19 0.63,0.63 0 0 0 0.15,-0.39 c 0,-0.18 0,-0.36 0,-0.54 0,-0.18 0,-0.49 0,-0.74 v 0 l -0.05,0.06 -0.28,0.39 a 0.72,0.72 0 0 1 -0.47,0.3 0.45,0.45 0 0 1 -0.52,-0.21 1.25,1.25 0 0 1 -0.23,-0.65 1.7,1.7 0 0 1 0.12,-0.8 1.19,1.19 0 0 1 0.37,-0.52 0.7,0.7 0 0 1 0.62,-0.15 0.68,0.68 0 0 1 0.41,0.25 v 0 c 0,-0.06 0,-0.1 0,-0.15 a 0.74,0.74 0 0 1 0.12,-0.29 0.24,0.24 0 0 1 0.1,-0.1 h 0.09 c 0,0 0,0 0,0 0,0 0,0.11 0,0.17 0,0.06 0,0.06 0,0.09 0,0.03 0,0 0,0 a 1,1 0 0 0 0,0.25 v 1.37 0 c 0,-0.33 0,-0.67 0,-1 0,-0.33 0,-0.54 0,-0.81 a 0.41,0.41 0 0 1 0,-0.11 c 0,0 0,0 0,0 v 0 0 c 0,0 0,0 0,0.06 a 3.73,3.73 0 0 1 0.29,0.65 z m -2,0.86 v 0 0.15 0 z m 0.06,0.41 c 0,0 0,-0.08 0,-0.12 v 0 c 0,0 0,0.07 0,0.11 z m 0.14,0.3 v 0 c 0,0 0,-0.08 -0.07,-0.13 v 0 z m 0,-1 v 0 -0.12 0 c 0,0 0.01,0.09 0,0.13 z m 0,0.43 v -0.2 a 0.23,0.23 0 0 0 0.02,0.21 z m 0.08,0.7 -0.06,-0.08 v 0 z M 41.9,30.87 v 0 l 0.06,-0.12 v 0 z m 0,0.76 v 0 0.12 0 a 0.5,0.5 0 0 1 0.04,-0.11 z m 0.07,-0.58 v 0 0.14 0 z m 0.05,-0.45 v 0 l -0.06,0.08 v 0 z m 0.14,3.07 -0.15,-0.09 v 0 l 0.16,0.09 z M 43.09,31 a 0.56,0.56 0 0 0 -0.1,-0.15 0.61,0.61 0 0 0 -0.31,-0.24 0.17,0.17 0 0 0 -0.17,0 1.22,1.22 0 0 0 -0.17,0.15 1.13,1.13 0 0 0 -0.27,0.73 c 0,0.06 0,0.12 0,0.18 a 1,1 0 0 0 0.12,0.39 c 0,0.06 0.06,0.08 0.12,0.05 a 0.48,0.48 0 0 0 0.16,-0.08 l 0.2,-0.21 0.41,-0.52 A 0.62,0.62 0 0 0 43.09,31 Z m -1,-0.28 v 0 l 0.06,-0.08 v 0 z m 0,-0.24 v 0 l 0.07,-0.08 v 0 z m 0.1,0 -0.06,0.07 v 0 l 0.06,-0.06 z m 0.07,-0.07 0.08,-0.05 c 0,0 -0.05,0 -0.07,0.06 z m 0,3.29 0.19,0.07 v 0 l -0.19,-0.06 z m 0.11,-3.36 h -0.06 v 0 0 h 0.08 z m 0,-0.06 c 0,0 0.09,0.05 0.14,0 0.05,-0.05 -0.06,-0.04 -0.1,0.01 z m 0.17,3.55 h -0.13 v 0 h 0.14 z m 0.12,-1.78 -0.09,0.09 v 0 c 0,0 0.12,-0.03 0.13,-0.08 z m 0.26,-0.32 v 0 c -0.08,0.1 -0.17,0.2 -0.25,0.31 v 0 z m 0.25,1.78 v 0 l -0.08,0.13 c 0.08,-0.02 0.08,-0.03 0.12,-0.12 z m 0.08,-0.71 v 0 0.12 0 a 0.49,0.49 0 0 0 0.04,-0.11 z m 0.18,0.31 v 0 c 0,0.08 0,0.16 -0.05,0.23 -0.05,0.07 0.07,-0.14 0.09,-0.22 z m 0,-0.54 v 0.44 0 a 0.93,0.93 0 0 0 0.03,-0.43 z m 0.09,0.2 v 0 0.24 0 c 0.02,-0.07 0.02,-0.15 0.03,-0.23 z"
         id="path1698" />
    </g>
  </g>
</svg>
