<svg width="100" height="97" viewBox="0 0 100 97" fill="none" xmlns="http://www.w3.org/2000/svg">
<path d="M4.54546 84.8484H83.3333C85.8394 84.8484 87.8788 82.8091 87.8788 80.303V4.54535C87.8788 2.03929 85.8394 0 83.3333 0H4.54546C2.0394 0 0 2.03929 0 4.54535V80.303C0 82.8091 2.0394 84.8484 4.54546 84.8484ZM3.0303 4.54535C3.0303 3.70927 3.71211 3.03018 4.54546 3.03018H83.3333C84.1667 3.03018 84.8485 3.70939 84.8485 4.54535V80.303C84.8485 81.1391 84.1667 81.818 83.3333 81.818H4.54546C3.71213 81.818 3.0303 81.139 3.0303 80.303V4.54535Z" fill="#AE7F22"/>
<path d="M10.6069 9.09106C9.77056 9.09106 9.09171 9.8286 9.09171 10.7363V73.2564C9.09171 74.1646 9.77054 74.9017 10.6069 74.9017H77.2735C78.1099 74.9017 78.7887 74.164 78.7887 73.2564V10.7363C78.7887 9.82803 78.1099 9.09106 77.2735 9.09106H10.6069ZM12.122 12.3816H75.7584V20.8007V53.7767V58.7575V67.2731V71.6112H12.122V67.2731V56.3476V51.7715V20.8007V12.3816Z" fill="#AE7F22"/>
<path d="M13.6364 88.1304C12.8001 88.1304 12.1212 88.8096 12.1212 89.6456V92.4243C12.1212 94.9303 14.1606 96.9698 16.6667 96.9698H95.4546C97.9606 96.9698 100 94.9303 100 92.4243V13.6364C100 11.1304 97.9606 9.09106 95.4546 9.09106H92.6758C91.8395 9.09106 91.1606 9.77028 91.1606 10.6062C91.1606 11.4423 91.8394 12.1212 92.6758 12.1212H95.4546C96.2879 12.1212 96.9697 12.8005 96.9697 13.6364V92.4243C96.9697 93.2604 96.2879 93.9395 95.4546 93.9395H16.6667C15.8333 93.9395 15.1515 93.2602 15.1515 92.4243V89.6456C15.1515 88.8095 14.4727 88.1304 13.6364 88.1304V88.1304Z" fill="#AE7F22"/>
<path d="M16.8537 13.9592C16.6538 13.9584 16.4556 13.9971 16.2707 14.0733C16.0858 14.1495 15.9179 14.2615 15.7764 14.4029C15.635 14.5443 15.523 14.7124 15.4469 14.8973C15.3707 15.0822 15.3319 15.2803 15.3326 15.4803V52.7477C15.3319 52.9476 15.3707 53.1458 15.4469 53.3307C15.523 53.5155 15.635 53.6835 15.7764 53.8249C15.9179 53.9663 16.0858 54.0783 16.2707 54.1545C16.4556 54.2306 16.6538 54.2695 16.8537 54.2688H21.7079C21.9079 54.2695 22.106 54.2306 22.2909 54.1545C22.4758 54.0783 22.6438 53.9663 22.7852 53.8249C22.9266 53.6835 23.0386 53.5155 23.1148 53.3307C23.191 53.1458 23.2298 52.9476 23.229 52.7477V39.6839L35.9348 53.7766C36.0768 53.9319 36.2496 54.0559 36.4422 54.1407C36.6348 54.2255 36.8429 54.2692 37.0533 54.2691H43.4285C43.7206 54.2674 44.0058 54.1813 44.2501 54.0213C44.4943 53.8613 44.6871 53.634 44.8053 53.367C44.9235 53.1 44.962 52.8045 44.9161 52.5161C44.8703 52.2277 44.7422 51.9586 44.5471 51.7414L28.4187 34.1367L44.3905 16.4873C44.5856 16.27 44.7137 16.0009 44.7596 15.7126C44.8054 15.4242 44.7669 15.1287 44.6487 14.8616C44.5306 14.5946 44.3378 14.3674 44.0935 14.2073C43.8493 14.0473 43.564 13.9612 43.272 13.9595H37.1204C36.9046 13.9591 36.6912 14.0047 36.4944 14.0934C36.2977 14.1821 36.1221 14.3117 35.9795 14.4737L23.229 28.7901V15.4803C23.2298 15.2803 23.191 15.0822 23.1148 14.8973C23.0386 14.7124 22.9266 14.5445 22.7852 14.4031C22.6438 14.2617 22.4758 14.1496 22.2909 14.0735C22.106 13.9973 21.9079 13.9586 21.7079 13.9594L16.8537 13.9592ZM18.3525 17.0014H20.1868V32.7494C20.1835 33.0599 20.2756 33.3641 20.4507 33.6204C20.6259 33.8768 20.8755 34.0732 21.166 34.183C21.4564 34.2928 21.7736 34.3109 22.0745 34.2346C22.3755 34.1582 22.6458 33.9912 22.8487 33.7562L37.7915 17.0016H39.8494L25.2423 33.1299C24.9895 33.4086 24.8496 33.7715 24.8496 34.1477C24.8496 34.5239 24.9895 34.8866 25.2423 35.1653L39.9837 51.2491H37.7467L22.8264 34.7403C22.6216 34.5137 22.3531 34.3543 22.0561 34.283C21.7591 34.2116 21.4475 34.2316 21.1621 34.3405C20.8767 34.4493 20.6308 34.6419 20.4568 34.8929C20.2827 35.1439 20.1886 35.4417 20.1868 35.7471V51.2491H18.3525V17.0014Z" fill="#AE7F22"/>
<path d="M46.9405 26.5308C46.7406 26.53 46.5424 26.5689 46.3575 26.6451C46.1726 26.7212 46.0046 26.8333 45.8632 26.9747C45.7218 27.1161 45.6098 27.284 45.5336 27.4689C45.4575 27.6538 45.4186 27.8519 45.4194 28.0519V67.3772C45.4186 67.5772 45.4574 67.7753 45.5336 67.9602C45.6098 68.1451 45.7218 68.3132 45.8632 68.4546C46.0046 68.596 46.1726 68.7081 46.3575 68.7842C46.5424 68.8604 46.7406 68.8991 46.9405 68.8983H71.4126C71.6126 68.8991 71.8107 68.8604 71.9956 68.7842C72.1805 68.7081 72.3485 68.596 72.4899 68.4546C72.6314 68.3132 72.7434 68.1451 72.8195 67.9602C72.8957 67.7753 72.9345 67.5772 72.9337 67.3772V62.9034C72.9345 62.7034 72.8957 62.5052 72.8195 62.3204C72.7433 62.1355 72.6313 61.9675 72.4899 61.8261C72.3485 61.6847 72.1805 61.5727 71.9956 61.4965C71.8107 61.4204 71.6126 61.3815 71.4126 61.3822H53.7632V28.0519C53.7647 27.6519 53.608 27.2675 53.3273 26.9825C53.0465 26.6976 52.6645 26.5351 52.2644 26.5308H46.9405ZM48.4616 29.573H50.7433V62.9034C50.7426 63.1033 50.7814 63.3015 50.8576 63.4864C50.9337 63.6713 51.0457 63.8392 51.1871 63.9806C51.3285 64.122 51.4965 64.234 51.6814 64.3102C51.8663 64.3863 52.0645 64.4252 52.2644 64.4245H69.8915V65.8785H48.4616V29.573Z" fill="#AE7F22"/>
</svg>
