<svg width="101" height="100" viewBox="0 0 101 100" fill="none" xmlns="http://www.w3.org/2000/svg">
<path d="M2.01851 17.5469C-0.628362 20.1969 -0.0627369 23.9281 2.04351 26.0312C2.12789 26.1125 10.5873 34.1937 22.4841 46.0906C22.7904 46.3969 23.1904 46.5469 23.5904 46.5469C23.9904 46.5469 24.3904 46.3937 24.6966 46.0906C25.306 45.4812 25.306 44.4906 24.6966 43.8812C22.9029 42.0875 21.1966 40.3906 19.5779 38.7844L24.5435 33.8187C25.1529 33.2094 25.1529 32.2188 24.5435 31.6094C23.9341 31 22.9435 31 22.3341 31.6094L17.356 36.5875C14.5716 33.8375 12.1185 31.4375 10.1216 29.4906L21.4185 18.1937C22.0279 17.5844 22.0279 16.5937 21.4185 15.9844C20.8091 15.375 19.8185 15.375 19.2091 15.9844L7.87789 27.3156C5.57789 25.0875 4.25289 23.8219 4.23101 23.8C3.57164 23.1406 2.70601 21.2844 4.23101 19.7594L19.856 4.13437C20.4591 3.52187 22.0654 2.30625 23.8279 4.05937C23.906 4.14687 31.7966 13.1094 43.8404 25.1531C44.4498 25.7625 45.4404 25.7625 46.0498 25.1531C46.6591 24.5437 46.6591 23.5531 46.0498 22.9437C34.081 10.9781 26.2498 2.08437 26.106 1.92187C23.1935 -0.984377 19.681 -0.112502 17.6466 1.92187L2.01851 17.5469Z" fill="#AE7F22"/>
<path d="M68.2935 75.3594C67.6841 74.75 66.6935 74.75 66.0841 75.3594L61.1122 80.3281C59.5966 78.7937 58.006 77.1875 56.331 75.5125C55.7216 74.9031 54.731 74.9031 54.1216 75.5125C53.5122 76.1219 53.5122 77.1125 54.1216 77.7219C65.6966 89.2937 73.781 97.9375 73.8966 98.0625C74.9685 99.1375 76.4372 99.7281 78.031 99.7281C79.6716 99.7281 81.331 99.0875 82.3591 98.0562L97.9778 82.2531C99.9435 80.2875 100.056 76.9531 98.2216 75.1125L77.2653 54.1594C76.656 53.55 75.6653 53.55 75.056 54.1594C74.4466 54.7687 74.4466 55.7594 75.056 56.3687L96.0122 77.3219C96.6372 77.9469 96.5185 79.2969 95.7653 80.05L80.1435 95.8531C79.7841 96.2156 78.9685 96.6031 78.031 96.6031C77.4935 96.6031 76.7247 96.4719 76.1435 95.8875C76.1122 95.8531 74.8028 94.4562 72.531 92.0781L83.9185 80.6906C84.5278 80.0812 84.5278 79.0906 83.9185 78.4812C83.3091 77.8719 82.3185 77.8719 81.7091 78.4812L70.3685 89.8219C68.4185 87.7937 66.0278 85.3281 63.306 82.5531L68.2935 77.5656C68.9028 76.9594 68.9028 75.9719 68.2935 75.3594Z" fill="#AE7F22"/>
<path d="M0.443476 99.3688C0.743476 99.675 1.1466 99.8375 1.56223 99.8375C1.71223 99.8375 1.86223 99.8156 2.0091 99.7719L33.2591 90.4625C33.5122 90.3875 33.7372 90.2531 33.9216 90.0656L87.3278 36.3C87.4028 36.225 87.4403 36.1281 87.4966 36.0437L98.9216 24.6187C99.8403 23.6969 100.35 22.475 100.35 21.1719C100.35 19.8719 99.8403 18.65 98.9216 17.7344L82.5622 1.37812C80.7247 -0.459375 77.5153 -0.459375 75.6778 1.37812L63.9935 13.0625C63.9185 13.1375 63.8778 13.2344 63.8216 13.3219L10.3341 66.8125C10.1591 66.9875 10.0279 67.2 9.95285 67.4344L0.0778515 97.7938C-0.103398 98.3469 0.0372265 98.95 0.443476 99.3688ZM65.1872 16.375L68.4341 19.6219L19.9247 68.2625L14.5279 67.0375L65.1872 16.375ZM21.8747 70.7344L70.6466 21.8344L78.2591 29.4469L29.0466 78.0281H21.8747V70.7344ZM84.0122 35.2031L33.2497 86.3094L31.4466 80.0531L80.4685 31.6562L84.0122 35.2031ZM12.4779 69.775L18.7497 71.2V79.5906C18.7497 80.4531 19.4497 81.1531 20.3122 81.1531H28.5122L30.4935 88.0281L3.96848 95.9313L12.4779 69.775ZM77.8903 3.5875C78.5497 2.92812 79.6966 2.92812 80.356 3.5875L96.7153 19.9469C97.0435 20.275 97.2247 20.7125 97.2247 21.1781C97.2247 21.6406 97.0435 22.0812 96.7122 22.4125L86.1778 32.95L67.356 14.1281L77.8903 3.5875Z" fill="#AE7F22"/>
</svg>
