<svg width="100" height="100" viewBox="0 0 100 100" fill="none" xmlns="http://www.w3.org/2000/svg">
<path d="M50 100C77.5687 100 100 77.5687 100 50C100 22.4313 77.5687 0 50 0C22.4313 0 0 22.4313 0 50C0 77.5687 22.4313 100 50 100ZM24.0938 10.9688C21.3531 18.3563 19.9906 25.9969 20.2 33.7406C20.3563 39.3594 21.3156 44.9875 23.0656 50.475C24.425 54.725 26.2 58.7719 28.35 62.5C28.6937 63.1 29.0531 63.6906 29.4156 64.275C29.7125 64.75 30.2219 65.0125 30.7438 65.0125C31.0281 65.0125 31.3125 64.9375 31.5688 64.7781C32.3 64.3219 32.5281 63.3594 32.0719 62.6281C31.7281 62.0719 31.3875 61.5094 31.0562 60.9375C29.0219 57.4031 27.3344 53.5656 26.0437 49.5281C24.3844 44.3187 23.4719 38.9781 23.325 33.6562C23.1031 25.5063 24.625 17.4594 27.9281 9.55C28.0813 9.175 28.2437 8.80625 28.4062 8.4375C34.875 5.0625 42.2094 3.125 50 3.125C57.4781 3.125 64.525 4.92812 70.8031 8.05625C63.0531 9.37813 55.775 12.0156 49.1813 16.0656C44.3969 19 40 22.65 36.1219 26.9125C33.1156 30.2094 30.5 33.775 28.35 37.5C28.0031 38.1 27.6656 38.7062 27.3438 39.3156C26.9375 40.0781 27.2281 41.025 27.9906 41.4281C28.2219 41.5531 28.475 41.6125 28.7219 41.6125C29.2812 41.6125 29.8219 41.3094 30.1 40.7812C30.4062 40.2062 30.7219 39.6344 31.0531 39.0625C33.0906 35.5281 35.575 32.15 38.4281 29.0156C42.1125 24.9719 46.2812 21.5125 50.8156 18.725C57.7687 14.4594 65.4969 11.7531 73.7969 10.6875C74.2531 10.625 74.7125 10.575 75.1719 10.5219C87.4125 18.3563 95.7594 31.6969 96.725 47.0406C91.7062 40.9938 85.7844 36.0094 78.9812 32.325C74.0375 29.6469 68.6781 27.6656 63.0531 26.4375C57.9906 25.3281 52.8906 24.8563 47.9187 25.0375C47.0594 25.0719 46.3844 25.7938 46.4156 26.6594C46.4469 27.5031 47.1375 28.1625 47.9781 28.1625C47.9969 28.1625 48.0156 28.1625 48.0375 28.1625C52.7125 27.9875 57.5812 28.4375 62.3906 29.4906C67.725 30.6562 72.8094 32.5375 77.4938 35.0719C84.6656 38.9594 90.8719 44.3 96.1125 51.1688C96.3375 51.4594 96.5531 51.7563 96.7719 52.05C96.1 67.4688 87.9969 80.9812 75.9062 89.0312C78.6469 81.6437 80.0094 74.0031 79.8 66.2594C79.6437 60.6406 78.6844 55.0125 76.9344 49.525C75.575 45.275 73.8 41.2281 71.65 37.5C71.3063 36.9 70.9469 36.3094 70.5844 35.725C70.1281 34.9906 69.1625 34.7719 68.4344 35.2219C67.7031 35.6781 67.475 36.6406 67.9313 37.3719C68.275 37.9281 68.6156 38.4906 68.9469 39.0625C70.9812 42.5969 72.6687 46.4344 73.9594 50.4719C75.6188 55.6812 76.5312 61.0219 76.6781 66.3438C76.9 74.4906 75.3781 82.5406 72.075 90.45C71.9187 90.8219 71.7594 91.1937 71.5969 91.5625C65.125 94.9375 57.7906 96.875 50 96.875C42.5219 96.875 35.475 95.0719 29.1969 91.9438C36.9438 90.6219 44.225 87.9844 50.8187 83.9344C55.6094 80.9937 60.0031 77.3438 63.8781 73.0875C66.8875 69.7875 69.5031 66.225 71.65 62.4969C71.9969 61.8969 72.3344 61.2906 72.6562 60.6812C73.0625 59.9187 72.7719 58.9719 72.0094 58.5688C71.2531 58.1625 70.3 58.4562 69.8969 59.2156C69.5906 59.7906 69.275 60.3625 68.9437 60.9344C66.9062 64.4688 64.4219 67.8469 61.5656 70.9813C57.8906 75.0219 53.7219 78.4812 49.1813 81.2719C42.2281 85.5375 34.5 88.2438 26.2 89.3094C25.7437 89.3719 25.2844 89.4219 24.825 89.475C12.5844 81.6406 4.2375 68.3 3.27188 52.9562C8.29062 59.0031 14.2125 63.9875 21.0156 67.6719C25.9594 70.35 31.3187 72.3312 36.9437 73.5594C41.3031 74.5187 45.6937 75 50 75C50.6969 75 51.3844 74.9875 52.0781 74.9625C52.9375 74.9281 53.6125 74.2063 53.5812 73.3406C53.55 72.4812 52.9406 71.7625 51.9594 71.8375C47.2906 72.0156 42.4156 71.5625 37.6063 70.5094C32.2719 69.3438 27.1875 67.4625 22.5031 64.9281C15.3313 61.0406 9.125 55.7 3.88438 48.8313C3.65938 48.5406 3.44375 48.2437 3.225 47.95C3.9 32.5312 12.0063 19.0187 24.0938 10.9688Z" fill="#AE7F22"/>
</svg>
