<?xml version="1.0" encoding="utf-8"?>
<!-- Generator: Adobe Illustrator 24.1.0, SVG Export Plug-In . SVG Version: 6.00 Build 0)  -->
<svg version="1.1" id="Layer_1" xmlns="http://www.w3.org/2000/svg" xmlns:xlink="http://www.w3.org/1999/xlink" x="0px" y="0px"
	 viewBox="0 0 657.6 161.5" style="enable-background:new 0 0 657.6 161.5;" xml:space="preserve">
<style type="text/css">
	.st0{fill:#575757;}
	.st1{fill:#EC8C22;}
	.st2{fill:url(#SVGID_1_);}
	.st3{opacity:0.15;fill:url(#SVGID_2_);enable-background:new    ;}
	.st4{fill:#60635F;}
</style>
<path class="st0" d="M4.8,161c-5.5-52.6-5.5-105.7,0-158.3c15.1-1.2,31.8-2,49.6-2.2c23.5-0.2,44.9,0.7,63.8,2.2
	C95.3,25.6,74.3,50.1,55.3,76.2C35.8,102.9,18.9,131.2,4.8,161z"/>
<path class="st1" d="M106.3,161H13.5c12.5-29.3,27.9-57.3,45.9-83.6c18.2-26.6,38.7-51.5,61.2-74.6c-27,40.7-46.9,85.6-59,132.8
	c4.3,5.4,9.3,10.1,15,14C85.4,155.6,95.6,159.5,106.3,161z"/>
<linearGradient id="SVGID_1_" gradientUnits="userSpaceOnUse" x1="1.372" y1="129.1024" x2="71.082" y2="129.1024" gradientTransform="matrix(1 0 0 -1 0 163.0648)">
	<stop  offset="0" style="stop-color:#FFFFFF"/>
	<stop  offset="1" style="stop-color:#BCBDBF"/>
</linearGradient>
<path class="st2" d="M71.1,0.5C43.7,18,20,40.8,1.4,67.4c8.8-5.6,18.7-9.2,29-10.6c6.1-0.8,12.3-0.8,18.3,0
	C50.8,36.4,58.6,16.9,71.1,0.5z"/>
<linearGradient id="SVGID_2_" gradientUnits="userSpaceOnUse" x1="0.8885" y1="82.3124" x2="118.162" y2="82.3124" gradientTransform="matrix(1 0 0 -1 0 163.0648)">
	<stop  offset="0" style="stop-color:#FFFFFF"/>
	<stop  offset="1" style="stop-color:#BCBDBF"/>
</linearGradient>
<path class="st3" d="M118.2,2.7L71.1,0.5L1.4,67.4c-0.5,13.5-0.7,27.9-0.2,43.1c0.5,18,1.8,34.9,3.6,50.5
	C33.3,102.1,71.6,48.6,118.2,2.7z"/>
<g>
	<path class="st4" d="M155.3,133.4l-34.5-39.8v39.9h-14.6V44.3h14.6v40.6l34.6-40.6h18.3L135,88.9l39.4,44.5L155.3,133.4z"/>
	<path class="st4" d="M188.1,50.7c-3.6-3.7-3.6-9.6,0-13.3c1.8-1.8,4.2-2.8,6.7-2.7c2.5,0,4.8,0.9,6.5,2.7c3.6,3.7,3.6,9.6,0,13.3
		c-1.7,1.8-4.1,2.7-6.5,2.7C192.2,53.4,189.8,52.4,188.1,50.7z M201.9,62.7v70.6h-14.6V62.7L201.9,62.7z"/>
	<path class="st4" d="M238.2,74.6v39.1c0,2.7,0.6,4.6,1.9,5.7c1.2,1.2,3.4,1.7,6.4,1.7h9v12.2h-11.6c-6.6,0-11.6-1.5-15.1-4.6
		c-3.5-3.1-5.3-8.1-5.3-15V74.6h-8.3V62.7h8.4V45.2h14.7v17.6h17.2v11.9H238.2z"/>
	<path class="st4" d="M268.4,78.9c5.6-10.8,16.8-17.5,28.9-17.3c5-0.1,10,1,14.5,3.3c3.9,2,7.3,4.7,9.9,8.1V62.7h14.7v70.6h-14.7
		v-10.5c-2.7,3.5-6.2,6.4-10.1,8.3c-10,4.9-21.8,4.4-31.3-1.4c-5.1-3.2-9.3-7.7-12-13.1c-3-5.9-4.5-12.4-4.4-19
		C263.8,91.2,265.3,84.7,268.4,78.9z M318.7,85.3c-1.8-3.4-4.5-6.2-7.9-8.2c-3.2-1.9-6.8-2.8-10.5-2.8c-3.7,0-7.3,0.9-10.5,2.8
		c-3.3,1.9-6.1,4.7-7.9,8.1c-2.1,3.9-3.1,8.2-3,12.6c-0.1,4.5,0.9,8.9,3,12.8c1.8,3.5,4.6,6.4,7.9,8.4c6.5,3.8,14.5,3.9,21,0.1
		c3.3-2,6.1-4.8,7.9-8.3c2.1-3.9,3.1-8.3,3-12.8C321.9,93.6,320.8,89.2,318.7,85.3z"/>
	<path class="st1" d="M370.3,38.5v94.9h-14.6V38.5H370.3z"/>
	<path class="st1" d="M389.1,78.9c5.6-10.8,16.8-17.5,28.9-17.3c5-0.1,10,1,14.5,3.3c3.9,2,7.2,4.8,9.9,8.2V62.7h14.7v70.6h-14.7
		v-10.5c-2.7,3.5-6.2,6.4-10.1,8.3c-10,4.9-21.8,4.4-31.3-1.4c-5.1-3.2-9.3-7.7-12-13.1c-3-5.9-4.5-12.4-4.4-19
		C384.5,91.2,386.1,84.7,389.1,78.9z M439.5,85.3c-1.8-3.4-4.6-6.2-7.9-8.2c-3.2-1.9-6.8-2.8-10.5-2.8c-7.7-0.1-14.7,4.1-18.4,10.8
		c-2.1,3.9-3.1,8.2-3,12.6c-0.1,4.5,0.9,8.9,3,12.8c1.8,3.5,4.6,6.4,8,8.4c3.2,1.9,6.8,2.9,10.5,2.9c3.7,0,7.3-1,10.5-2.8
		c3.3-2,6.1-4.8,7.9-8.3c2.1-3.9,3.1-8.3,3-12.8C442.6,93.6,441.6,89.2,439.5,85.3z"/>
	<path class="st1" d="M501.3,64.8c4.5-2.2,9.4-3.4,14.4-3.3c5.9-0.1,11.8,1.5,16.9,4.5c5.1,3,9.2,7.5,11.9,12.8
		c3,5.8,4.5,12.3,4.4,18.9c0.1,6.6-1.4,13.1-4.4,19c-2.7,5.4-6.9,9.9-12,13.1c-9.6,5.7-21.3,6.2-31.4,1.5c-4-1.9-7.4-4.7-10.1-8.2
		v10.3h-14.6V38.5h14.6v34.7C493.8,69.7,497.3,66.8,501.3,64.8z M531,85.1c-1.8-3.4-4.6-6.2-8-8.1c-3.2-1.8-6.9-2.8-10.6-2.8
		c-3.7,0-7.3,1-10.4,2.8c-3.4,1.9-6.1,4.8-8,8.2c-2.1,3.9-3.1,8.3-3,12.7c-0.1,4.4,0.9,8.8,3,12.8c3.6,6.8,10.7,11.1,18.4,11.1
		c3.7,0,7.4-1,10.6-2.9c3.4-2,6.1-4.9,8-8.4c2.1-4,3.1-8.4,3-12.8C534.1,93.3,533.1,89,531,85.1z"/>
	<path class="st1" d="M627.6,103.5h-54c0.2,5.2,2.5,10.1,6.3,13.6c3.8,3.4,8.7,5.3,13.8,5.1c7.9,0,13.4-3.3,16.7-9.9h15.8
		c-2.1,6.4-6.1,12-11.6,16c-5.6,4.1-12.5,6.2-20.8,6.2c-6.3,0.1-12.6-1.5-18.1-4.6c-5.3-3-9.7-7.4-12.6-12.8
		c-3.1-5.9-4.7-12.6-4.5-19.2c-0.1-6.7,1.4-13.2,4.4-19.2c2.8-5.4,7.1-9.8,12.4-12.8c5.6-3.1,12-4.6,18.4-4.5
		c6.2-0.1,12.4,1.4,17.8,4.4c5.1,2.8,9.4,7.1,12.2,12.2c3,5.6,4.5,11.8,4.4,18.1C628.1,98.7,628,101.1,627.6,103.5z M612.9,91.7
		c0.1-5-2-9.8-5.8-13c-3.9-3.3-8.9-5-14-4.9c-4.8-0.1-9.4,1.6-12.9,4.8c-3.7,3.4-6,8-6.4,13L612.9,91.7z"/>
	<path class="st1" d="M657.1,38.5v94.9h-14.6V38.5H657.1z"/>
</g>
</svg>
