<svg width="73" height="100" viewBox="0 0 73 100" fill="none" xmlns="http://www.w3.org/2000/svg">
<path d="M36.1219 18.8235C36.9878 18.8235 37.6905 18.1208 37.6905 17.2549V12.549H39.2152C40.0811 12.549 40.7838 11.8463 40.7838 10.9804V1.56863C40.7838 0.702745 40.0811 0 39.2152 0H32.9407C32.0748 0 31.3721 0.702745 31.3721 1.56863V10.9804C31.3721 11.8463 32.0748 12.549 32.9407 12.549H34.5532V17.2549C34.5532 18.1208 35.2529 18.8235 36.1219 18.8235ZM34.5093 3.13725H37.6466V9.41177H34.5093V3.13725Z" fill="#AE7F22"/>
<path d="M0.840297 99.818C1.07245 99.9403 1.3203 99.9999 1.56814 99.9999C2.13285 99.9999 2.67873 99.6925 2.95481 99.1591L16.4199 73.5184C22.4591 76.5521 29.154 78.1929 36.1187 78.1929C43.0646 78.1929 49.747 76.5584 55.7736 73.5403L69.1948 99.1591C69.4772 99.6925 70.023 99.9999 70.5846 99.9999C70.8293 99.9999 71.0803 99.9403 71.3125 99.8211C72.0779 99.4164 72.376 98.4689 71.9744 97.7003L58.5219 72.0219C61.6309 70.1709 64.5517 67.9686 67.1744 65.3458C70.2332 62.287 70.2332 57.3113 67.1744 54.2556C64.2097 51.2909 59.0364 51.2972 56.0842 54.2556C54.6003 55.7395 52.9658 57.0164 51.2372 58.1144L43.8395 43.9936C46.7038 41.7066 48.5799 38.2305 48.5799 34.2901C48.5799 27.4195 42.9893 21.8258 36.1156 21.8258C29.2419 21.8258 23.6607 27.4195 23.6607 34.2933C23.6607 38.2305 25.5305 41.7035 28.3885 43.9905L20.9752 58.1019C19.256 57.0038 17.6309 55.7333 16.1564 54.2587C13.1917 51.294 8.01834 51.3003 5.06618 54.2587C2.00736 57.3176 2.00736 62.2933 5.06618 65.3489C7.67638 67.9591 10.5846 70.1552 13.6779 71.9999L0.181473 97.7003C-0.223233 98.4689 0.0716691 99.4164 0.840297 99.818ZM10.6097 55.0964C11.8677 55.0964 13.0505 55.5858 13.9415 56.4736C19.8583 62.3905 27.7328 65.647 36.1219 65.647C44.5109 65.647 52.3917 62.3905 58.3085 56.4736C60.0842 54.6948 63.187 54.7011 64.9626 56.4736C66.7979 58.3089 66.7979 61.2925 64.9626 63.1278C57.2701 70.8172 47.0238 75.0556 36.1219 75.0556C25.2136 75.0556 14.9768 70.8172 7.28736 63.1278C5.45206 61.2925 5.45206 58.3089 7.28736 56.4736C8.17206 55.5889 9.35167 55.0964 10.6097 55.0964ZM26.7979 34.2933C26.7979 29.1513 30.9799 24.9662 36.1219 24.9662C41.2638 24.9662 45.4489 29.1513 45.4489 34.2933C45.4489 39.4352 41.2638 43.6203 36.1219 43.6203C30.9799 43.6203 26.7979 39.4321 26.7979 34.2933ZM31.0552 45.6564C32.605 46.3497 34.3148 46.7576 36.1219 46.7576C37.9226 46.7576 39.6262 46.356 41.1728 45.6658L48.4983 59.6486C44.6897 61.5058 40.4889 62.516 36.1219 62.516C31.7423 62.516 27.5321 61.5027 23.7172 59.636L31.0552 45.6564Z" fill="#AE7F22"/>
</svg>
